<svg width="100" height="100" viewBox="0 0 147 147" fill="none" xmlns="http://www.w3.org/2000/svg">
<path d="M134.75 91.875L116.375 67.375L98 91.875H109.674C107.004 106.998 94.7415 119.26 79.625 121.924V79.625H91.875V67.375H79.625V57.183C89.0759 54.3716 96.2482 45.4046 96.2482 35.0044C96.2482 22.4543 86.044 12.25 73.5 12.25C60.956 12.25 50.7518 22.4543 50.7518 35.0044C50.7518 45.4046 57.9241 54.3716 67.375 57.183V67.375H55.125V79.625H67.375V121.924C52.2524 119.26 39.9901 106.998 37.3257 91.875H49L30.625 67.375L12.25 91.875H24.9471C28.077 115.671 49.0123 134.75 73.5 134.75C97.9877 134.75 118.923 115.671 122.053 91.875H134.75ZM63.0018 35.0044C63.0018 29.2163 67.7119 24.5 73.5 24.5C79.2881 24.5 83.9982 29.2163 83.9982 35.0044C83.9982 40.8293 79.0921 45.9375 73.5 45.9375C67.9079 45.9375 63.0018 40.8293 63.0018 35.0044Z" fill="black"/>
</svg>
