<svg width="40" height="37" viewBox="0 0 40 37" fill="none" xmlns="http://www.w3.org/2000/svg">
<path fill-rule="evenodd" clip-rule="evenodd" d="M31.4353 4.97327L18.8235 7.34827L6.31058 4.97327C2.89646 4.97327 0.124695 8.10352 0.124695 11.9676V23.7999C0.124695 27.6616 2.89646 30.7895 6.31058 30.7895L18.8235 28.3504L31.4353 30.7895C34.8541 30.7895 37.6235 27.6616 37.6235 23.7999V11.9676C37.6235 8.10352 34.8541 4.97327 31.4353 4.97327ZM14.1176 21.4724H11.84V23.75H4.70587V11.875H11.84V14.25H14.1176V21.4724ZM23.5294 23.75H16.4706V11.875H18.8235V21.4344H21.1765V11.875H23.5294V23.75ZM32.9412 19.0594L30.6823 19V23.75H28.1412L28.1882 19.0594H25.8823V11.875H28.1882V19.0594H30.6823V11.875H32.9412V19.0594Z" fill="#008C30"/>
<path fill-rule="evenodd" clip-rule="evenodd" d="M7.05884 19V21.4629H11.7788V19H7.05884Z" fill="#008C30"/>
<path fill-rule="evenodd" clip-rule="evenodd" d="M7.05884 14.25H11.8259V16.6939H7.05884V14.25Z" fill="#008C30"/>
</svg>
