<svg width="28" height="28" viewBox="0 0 28 28" fill="none" xmlns="http://www.w3.org/2000/svg">
<path d="M14 2.33337C7.56704 2.33337 2.33337 7.56704 2.33337 14C2.33337 20.433 7.56704 25.6667 14 25.6667C20.433 25.6667 25.6667 20.433 25.6667 14C25.6667 7.56704 20.433 2.33337 14 2.33337ZM15.1667 21H12.8334V18.6667H15.1667V21ZM16.3054 15.3009C16.0767 15.4852 15.8562 15.6614 15.6812 15.8364C15.2052 16.3112 15.1679 16.7429 15.1667 16.7615V16.9167H12.8334V16.7219C12.8334 16.5842 12.8672 15.3487 14.0304 14.1855C14.2579 13.958 14.5402 13.727 14.8365 13.4867C15.6929 12.7925 16.2552 12.2862 16.2552 11.5885C16.2417 10.9992 15.998 10.4385 15.5763 10.0265C15.1546 9.61452 14.5884 9.38394 13.9989 9.38409C13.4094 9.38424 12.8433 9.61512 12.4218 10.0273C12.0004 10.4395 11.757 11.0003 11.7437 11.5897H9.41037C9.41037 9.05921 11.4695 7.00004 14 7.00004C16.5305 7.00004 18.5897 9.05921 18.5897 11.5897C18.5897 13.4529 17.2142 14.5647 16.3054 15.3009Z" fill="white" />
</svg>