<svg width="142" height="126" viewBox="0 0 142 126" fill="none" xmlns="http://www.w3.org/2000/svg">
<g clip-path="url(#clip0)">
<path d="M66.8242 35.5113L80.2029 39.0305C80.6573 39.1365 81.0638 39.3895 81.3594 39.7499C81.655 40.1104 81.823 40.5582 81.8373 41.0238C81.8373 42.1559 80.8291 43.091 79.5891 43.091H70.8129C69.8672 43.0883 68.9308 42.9045 68.0544 42.5496C66.7626 42.0082 65.2736 42.1312 64.2826 43.0418L59.5987 47.3484C59.3821 47.5377 59.1951 47.7584 59.0441 48.003C58.8507 48.3197 58.722 48.6714 58.6654 49.0379C58.6088 49.4045 58.6255 49.7785 58.7144 50.1386C58.8033 50.4987 58.9627 50.8376 59.1835 51.1359C59.4042 51.4342 59.6819 51.6859 60.0006 51.8766C62.5945 53.4306 65.4988 54.3967 68.508 54.7066V59.0625C68.508 61.2281 70.4382 63 72.79 63H77.0721C79.4264 63 81.3566 61.2281 81.3566 59.0625V54.7312C89.4745 53.8453 95.6154 47.1023 94.5455 39.2273C93.7689 33.5672 89.0086 29.0637 83.0675 27.4887L69.6888 23.9695C69.2344 23.8635 68.8279 23.6105 68.5323 23.2501C68.2368 22.8896 68.0687 22.4418 68.0544 21.9762C68.0544 20.8441 69.0626 19.909 70.3026 19.909H79.0788C80.0278 19.9105 80.9677 20.0943 81.8472 20.4504C83.1365 20.9918 84.6279 20.8687 85.6189 19.9582L90.3028 15.6516C90.5123 15.4663 90.6926 15.2506 90.8378 15.0117C91.0328 14.6952 91.1631 14.3432 91.221 13.9761C91.279 13.609 91.2635 13.2341 91.1755 12.873C91.0875 12.5119 90.9287 12.1718 90.7082 11.8724C90.4878 11.5729 90.2101 11.3201 89.8911 11.1284C87.2963 9.57436 84.3913 8.60824 81.3813 8.29828V3.9375C81.3813 1.77187 79.4535 0 77.0992 0H72.8171C70.4629 0 68.5351 1.77187 68.5351 3.9375V8.26875C60.427 9.15469 54.2739 15.8977 55.3438 23.7727C56.1179 29.4328 60.893 33.9363 66.8242 35.5113ZM139.353 80.7434C136.444 78.1102 131.908 78.2824 128.851 80.7434L106.073 98.9297C103.277 101.169 99.7966 102.385 96.2119 102.375H67.056C66.0099 102.375 65.0066 101.96 64.2669 101.222C63.5272 100.483 63.1116 99.4818 63.1116 98.4375C63.1116 97.3932 63.5272 96.3917 64.2669 95.6533C65.0066 94.9148 66.0099 94.5 67.056 94.5H86.356C90.2757 94.5 93.9267 91.8176 94.5528 87.9539C94.63 87.5102 94.668 87.0606 94.6662 86.6102C94.6623 84.5242 93.8295 82.525 92.3505 81.0513C90.8715 79.5777 88.8672 78.75 86.7776 78.75H47.3343C40.6823 78.7517 34.2329 81.036 29.0672 85.2198L17.604 94.5H3.94677C2.90067 94.5 1.89741 94.9148 1.15771 95.6533C0.418003 96.3917 0.00244141 97.3932 0.00244141 98.4375L0.00244141 122.062C0.00244141 123.107 0.418003 124.108 1.15771 124.847C1.89741 125.585 2.90067 126 3.94677 126H91.8978C95.4813 126.003 98.959 124.788 101.759 122.555L139.04 92.7773C139.937 92.0613 140.666 91.1584 141.177 90.1318C141.688 89.1052 141.968 87.9795 141.999 86.8335C142.029 85.6875 141.808 84.5488 141.351 83.4969C140.895 82.445 140.214 81.5053 139.355 80.7434H139.353Z" fill="black"/>
</g>
<defs>
<clipPath id="clip0">
<rect width="142" height="126" fill="white"/>
</clipPath>
</defs>
</svg>
