<svg width="30" height="30" viewBox="0 0 30 30" fill="none" xmlns="http://www.w3.org/2000/svg">
<path d="M14.439 2.53831L2.15188 27.0451C2.10207 27.1448 2.09035 27.259 2.11672 27.3674C2.17824 27.6164 2.4302 27.7717 2.68215 27.7102L13.0005 25.1848C13.1558 25.1467 13.2818 25.0325 13.3316 24.8801L14.8169 20.553L16.3023 24.8772C16.355 25.0295 16.478 25.1438 16.6333 25.1789L26.9663 27.7102C27.0747 27.7366 27.189 27.7248 27.2857 27.675C27.5171 27.5608 27.6109 27.2795 27.4966 27.0451L15.2798 2.53831C15.2359 2.44749 15.1597 2.37425 15.0718 2.32737C14.8374 2.21312 14.5562 2.30686 14.439 2.53831ZM24.0308 24.8215L18.0073 23.3479L15.0396 14.6994C15.0161 14.6321 14.9634 14.5764 14.8931 14.553C14.77 14.5119 14.6382 14.5764 14.5943 14.6994L11.6294 23.3479L5.62941 24.8157L14.855 6.41722L24.0308 24.8215Z" fill="black"/>
</svg>
