<svg width="170" height="222" viewBox="0 0 520 622" fill="none" xmlns="http://www.w3.org/2000/svg">
<path d="M160.667 472.716V450.456L161.969 449.196H159.323C157.615 449.196 156.649 449.658 156.425 450.582H155.501L153.107 447.138C153.443 446.606 153.877 446.13 154.409 445.71C154.941 445.29 155.459 445.08 155.963 445.08H167.051C168.759 445.08 169.725 444.618 169.949 443.694H170.873L173.267 447.138C172.931 447.67 172.497 448.146 171.965 448.566C171.433 448.986 170.915 449.196 170.411 449.196H165.707V470.532C165.707 471.568 165.819 472.31 166.043 472.758C166.267 473.206 166.729 473.43 167.429 473.43V474.732L158.819 478.344L158.147 477C158.763 477 159.351 476.636 159.911 475.908C160.415 475.208 160.667 474.144 160.667 472.716ZM178.023 470.448C178.023 471.176 178.233 471.778 178.653 472.254C179.101 472.702 179.591 472.926 180.123 472.926C180.655 472.926 181.215 472.716 181.803 472.296V459.234C181.803 457.526 181.229 456.56 180.081 456.336V455.412L184.323 453.018C184.939 453.27 185.513 453.69 186.045 454.278C186.577 454.838 186.843 455.37 186.843 455.874V470.112C186.843 471.036 187.039 471.834 187.431 472.506C187.823 473.178 188.313 473.514 188.901 473.514V474.438C188.705 474.466 187.179 475.32 184.323 477C183.679 476.72 183.091 476.314 182.559 475.782C182.055 475.222 181.803 474.69 181.803 474.186L176.553 477C176.469 476.944 176.343 476.874 176.175 476.79C176.007 476.678 175.713 476.468 175.293 476.16C174.901 475.824 174.551 475.474 174.243 475.11C173.403 474.186 172.983 473.136 172.983 471.96V459.234C172.983 457.694 172.297 456.784 170.925 456.504V455.58L175.503 453.018C176.119 453.27 176.693 453.69 177.225 454.278C177.757 454.838 178.023 455.37 178.023 455.874V470.448ZM188.972 455.58L193.592 453.06C193.788 453.116 194.012 453.2 194.264 453.312C194.544 453.396 194.908 453.662 195.356 454.11C195.832 454.558 196.07 455.062 196.07 455.622C196.21 455.566 196.868 455.132 198.044 454.32C199.248 453.48 200.018 453.06 200.354 453.06C201.25 453.06 202.09 453.648 202.874 454.824C203.658 456 204.05 457.078 204.05 458.058V460.116L199.724 462.552L199.01 461.964C199.01 459.612 198.786 458.268 198.338 457.932C197.834 457.568 197.078 457.386 196.07 457.386V470.784C196.07 472.492 196.644 473.458 197.792 473.682V474.606L193.55 477C192.934 476.748 192.36 476.342 191.828 475.782C191.296 475.194 191.03 474.648 191.03 474.144V460.2C191.03 458.968 190.806 458.044 190.358 457.428C189.938 456.812 189.476 456.504 188.972 456.504V455.58ZM206.985 474.144V459.906C206.985 458.982 206.789 458.184 206.397 457.512C206.005 456.84 205.515 456.504 204.927 456.504V455.58C205.123 455.552 206.649 454.698 209.505 453.018C209.701 453.074 209.939 453.158 210.219 453.27C210.499 453.354 210.863 453.62 211.311 454.068C211.787 454.516 212.025 455.034 212.025 455.622C212.193 455.538 212.669 455.272 213.453 454.824C215.525 453.648 216.757 453.06 217.149 453.06C218.045 453.06 218.885 453.648 219.669 454.824C220.453 456 220.845 457.078 220.845 458.058V470.784C220.845 472.324 221.531 473.234 222.903 473.514V474.438L218.325 477C217.709 476.748 217.135 476.342 216.603 475.782C216.071 475.194 215.805 474.648 215.805 474.144V461.964C215.805 460.396 215.623 459.206 215.259 458.394C214.923 457.554 214.307 457.134 213.411 457.134L212.025 457.386V470.784C212.025 472.492 212.599 473.458 213.747 473.682V474.606L209.505 477C208.889 476.748 208.315 476.342 207.783 475.782C207.251 475.194 206.985 474.648 206.985 474.144ZM238.07 448.692V453.69H240.212L239.792 455.748H238.07V470.784C238.07 472.492 238.644 473.458 239.792 473.682V474.606L235.55 477C234.934 476.748 234.36 476.342 233.828 475.782C233.296 475.194 233.03 474.648 233.03 474.144V455.79H231.308L231.728 454.026C232.568 454.026 233.576 453.466 234.752 452.346C235.956 451.198 236.67 449.98 236.894 448.692H238.07ZM242.258 474.144V453.354C242.258 452.598 242.132 452.066 241.88 451.758C241.628 451.422 241.194 451.254 240.578 451.254V450.078C244.218 448.174 247.466 446.382 250.322 444.702L250.994 446.046C250.714 446.186 250.322 446.466 249.818 446.886C249.314 447.278 248.894 447.684 248.558 448.104C247.718 449.168 247.298 450.372 247.298 451.716V455.286C250.182 453.802 251.862 453.06 252.338 453.06C253.234 453.06 254.088 453.62 254.9 454.74C255.712 455.86 256.118 457.092 256.118 458.436V470.784C256.118 472.324 256.804 473.234 258.176 473.514V474.438L253.598 477C252.982 476.748 252.408 476.342 251.876 475.782C251.344 475.194 251.078 474.648 251.078 474.144V461.964C251.078 459.22 250.574 457.666 249.566 457.302C249.09 457.134 248.334 457.05 247.298 457.05V470.784C247.298 472.492 247.872 473.458 249.02 473.682V474.606L244.778 477C244.162 476.748 243.588 476.342 243.056 475.782C242.524 475.194 242.258 474.648 242.258 474.144ZM270.595 453.06C270.735 453.06 271.085 453.284 271.645 453.732C272.205 454.152 272.765 454.754 273.325 455.538C273.885 456.294 274.165 457.036 274.165 457.764V464.82C274.165 465.324 273.423 465.94 271.939 466.668C270.455 467.396 269.013 467.998 267.613 468.474C266.241 468.922 265.499 469.146 265.387 469.146C265.387 471.302 266.325 472.632 268.201 473.136C269.125 473.36 270.231 473.472 271.519 473.472V474.69C266.927 476.23 264.477 477 264.169 477C263.329 477 262.475 476.412 261.607 475.236C260.739 474.032 260.305 472.632 260.305 471.036V456.924C260.305 456.728 261.901 456.042 265.093 454.866C268.285 453.662 270.119 453.06 270.595 453.06ZM269.125 459.738C269.125 458.954 268.943 458.296 268.579 457.764C268.215 457.204 267.753 456.924 267.193 456.924C266.633 456.924 266.017 457.134 265.345 457.554V467.256C267.865 466.556 269.125 465.044 269.125 462.72V459.738ZM288.707 463.602C288.007 463.602 287.405 463.07 286.901 462.006C286.397 460.942 286.145 459.64 286.145 458.1V449.364C286.145 448.832 287.615 447.922 290.555 446.634C293.495 445.318 295.189 444.66 295.637 444.66C295.973 444.66 296.449 445.22 297.065 446.34C297.205 446.62 297.401 446.998 297.653 447.474C297.933 447.95 298.157 448.342 298.325 448.65C298.689 449.322 299.151 449.658 299.711 449.658V450.498C299.263 450.694 298.661 450.988 297.905 451.38C296.141 452.36 295.189 452.85 295.049 452.85C294.629 452.85 294.097 452.024 293.453 450.372C292.837 448.72 292.333 447.894 291.941 447.894C291.437 447.894 291.185 448.314 291.185 449.154V458.52C291.185 459.64 291.437 460.2 291.941 460.2C292.053 460.2 292.921 459.836 294.545 459.108C296.169 458.38 297.149 458.016 297.485 458.016C298.157 458.016 298.745 458.562 299.249 459.654C299.781 460.718 300.047 462.09 300.047 463.77V472.716C300.047 473.248 298.437 474.172 295.217 475.488C292.025 476.776 290.191 477.42 289.715 477.42C289.519 477.42 289.295 477.182 289.043 476.706C288.791 476.23 288.455 475.558 288.035 474.69C287.643 473.794 287.279 473.052 286.943 472.464C286.635 471.876 286.201 471.582 285.641 471.582V470.742C286.089 470.546 286.677 470.252 287.405 469.86C289.197 468.88 290.163 468.39 290.303 468.39C290.723 468.39 291.311 469.356 292.067 471.288C292.851 473.22 293.439 474.186 293.831 474.186C294.111 474.186 294.377 474.074 294.629 473.85C294.881 473.626 295.007 473.318 295.007 472.926V463.476C295.007 462.216 294.657 461.586 293.957 461.586C293.733 461.586 292.851 461.922 291.311 462.594C289.771 463.266 288.903 463.602 288.707 463.602ZM303.987 474.144V453.354C303.987 452.598 303.861 452.066 303.609 451.758C303.357 451.422 302.923 451.254 302.307 451.254V450.078C305.947 448.174 309.195 446.382 312.051 444.702L312.723 446.046C312.443 446.186 312.051 446.466 311.547 446.886C311.043 447.278 310.623 447.684 310.287 448.104C309.447 449.168 309.027 450.372 309.027 451.716V455.286C311.911 453.802 313.591 453.06 314.067 453.06C314.963 453.06 315.817 453.62 316.629 454.74C317.441 455.86 317.847 457.092 317.847 458.436V470.784C317.847 472.324 318.533 473.234 319.905 473.514V474.438L315.327 477C314.711 476.748 314.137 476.342 313.605 475.782C313.073 475.194 312.807 474.648 312.807 474.144V461.964C312.807 459.22 312.303 457.666 311.295 457.302C310.819 457.134 310.063 457.05 309.027 457.05V470.784C309.027 472.492 309.601 473.458 310.749 473.682V474.606L306.507 477C305.891 476.748 305.317 476.342 304.785 475.782C304.253 475.194 303.987 474.648 303.987 474.144ZM327.073 455.916V470.784C327.073 472.492 327.647 473.458 328.795 473.682V474.606L324.553 477C323.937 476.748 323.363 476.342 322.831 475.782C322.299 475.194 322.033 474.648 322.033 474.144V459.276C322.033 457.568 321.459 456.602 320.311 456.378V455.454L324.553 453.06C325.169 453.312 325.743 453.732 326.275 454.32C326.807 454.88 327.073 455.412 327.073 455.916ZM321.403 447.81V445.248C321.403 445.164 321.977 444.912 323.125 444.492C324.301 444.044 324.973 443.82 325.141 443.82C325.337 443.82 325.603 444.058 325.939 444.534C326.303 445.01 326.485 445.5 326.485 446.004V449.07C326.485 449.154 325.925 449.42 324.805 449.868C323.685 450.288 322.999 450.498 322.747 450.498C322.495 450.498 322.201 450.26 321.865 449.784C321.557 449.28 321.403 448.622 321.403 447.81ZM337.982 456.966C337.45 456.966 336.904 457.19 336.344 457.638V474.312C337.072 474.312 337.884 474.074 338.78 473.598C339.676 473.122 340.124 472.618 340.124 472.086V460.074C340.124 458.002 339.41 456.966 337.982 456.966ZM331.262 481.62V459.528C331.262 458.884 331.08 458.254 330.716 457.638C330.38 457.022 329.89 456.672 329.246 456.588V455.664C329.442 455.636 330.968 454.782 333.824 453.102C334.468 453.382 335.042 453.802 335.546 454.362C336.078 454.894 336.344 455.398 336.344 455.874C339.34 454.026 341.09 453.102 341.594 453.102C341.79 453.102 342.154 453.326 342.686 453.774C343.246 454.194 343.792 454.824 344.324 455.664C344.884 456.476 345.164 457.316 345.164 458.184V473.136C345.164 473.332 343.918 473.92 341.426 474.9C338.962 475.852 337.254 476.454 336.302 476.706V478.26C336.302 479.968 336.876 480.934 338.024 481.158V482.082L333.782 484.476C333.166 484.224 332.592 483.804 332.06 483.216C331.528 482.656 331.262 482.124 331.262 481.62ZM178.246 525.624V519.324H169.594C169.482 519.324 169.286 519.072 169.006 518.568C168.754 518.064 168.628 517.672 168.628 517.392C168.628 517.084 169.356 515.404 170.812 512.352C172.268 509.272 173.836 506.22 175.516 503.196C177.224 500.172 178.33 498.66 178.834 498.66C180.71 499.136 182.054 499.78 182.866 500.592C183.174 500.9 183.328 501.208 183.328 501.516V516.846H185.008V518.274L183.328 519.324V523.986C183.328 524.742 183.454 525.288 183.706 525.624C183.958 525.932 184.392 526.086 185.008 526.086V527.262C179.324 529.754 176.468 531 176.44 531L175.768 529.656C175.964 529.656 176.23 529.558 176.566 529.362C176.902 529.166 177.182 528.942 177.406 528.69C177.966 527.99 178.246 526.968 178.246 525.624ZM178.288 516.846V505.59L172.618 516.93C176.37 516.902 178.26 516.874 178.288 516.846ZM192.583 503.196V510.924C192.583 512.044 192.835 512.604 193.339 512.604C193.451 512.604 194.319 512.24 195.943 511.512C197.567 510.784 198.547 510.42 198.883 510.42C199.555 510.42 200.143 511.022 200.647 512.226C201.179 513.43 201.445 514.886 201.445 516.594V526.716C201.445 527.248 199.835 528.172 196.615 529.488C193.423 530.776 191.589 531.42 191.113 531.42C190.917 531.42 190.693 531.182 190.441 530.706C190.189 530.23 189.853 529.558 189.433 528.69C189.041 527.794 188.677 527.052 188.341 526.464C188.033 525.876 187.599 525.582 187.039 525.582V524.742C187.487 524.546 188.075 524.252 188.803 523.86C190.595 522.88 191.561 522.39 191.701 522.39C192.121 522.39 192.709 523.216 193.465 524.868C194.249 526.52 194.837 527.346 195.229 527.346C195.509 527.346 195.775 527.234 196.027 527.01C196.279 526.786 196.405 526.478 196.405 526.086V517.14C196.405 515.88 196.055 515.25 195.355 515.25C195.131 515.25 194.249 515.586 192.709 516.258C191.169 516.93 190.301 517.266 190.105 517.266C189.405 517.266 188.803 516.734 188.299 515.67C187.795 514.606 187.543 513.304 187.543 511.764V499.878C187.543 499.346 187.921 499.08 188.677 499.08H195.061C196.825 499.08 197.847 498.632 198.127 497.736L199.093 497.694L201.403 501.138C201.207 501.67 200.815 502.146 200.227 502.566C199.639 502.986 199.037 503.196 198.421 503.196H192.583ZM221.525 498.66C222.281 498.66 223.471 500.494 225.095 504.162C226.719 507.83 227.531 510.364 227.531 511.764V524.574C227.531 525.218 227.699 525.848 228.035 526.464C228.399 527.08 228.903 527.43 229.547 527.514V528.438C229.351 528.466 227.825 529.32 224.969 531C224.325 530.72 223.737 530.314 223.205 529.782C222.701 529.222 222.449 528.704 222.449 528.228C219.453 530.076 217.703 531 217.199 531C217.003 531 216.625 530.79 216.065 530.37C215.533 529.922 214.987 529.292 214.427 528.48C213.895 527.64 213.629 526.786 213.629 525.918V510.924C213.629 510.644 215.995 509.678 220.727 508.026C219.719 505.814 218.907 504.26 218.291 503.364C217.675 502.468 217.073 502.02 216.485 502.02H215.099V500.76C218.207 499.36 220.349 498.66 221.525 498.66ZM220.811 527.136C221.343 527.136 221.889 526.912 222.449 526.464V511.848C222.449 511.68 222.323 511.33 222.071 510.798C221.847 510.238 221.679 509.958 221.567 509.958C220.755 509.958 219.929 510.21 219.089 510.714L218.669 510.966V524.028C218.669 526.1 219.383 527.136 220.811 527.136ZM241.966 507.06C242.106 507.06 242.456 507.284 243.016 507.732C243.576 508.152 244.136 508.754 244.696 509.538C245.256 510.294 245.536 511.036 245.536 511.764V518.82C245.536 519.324 244.794 519.94 243.31 520.668C241.826 521.396 240.384 521.998 238.984 522.474C237.612 522.922 236.87 523.146 236.758 523.146C236.758 525.302 237.696 526.632 239.572 527.136C240.496 527.36 241.602 527.472 242.89 527.472V528.69C238.298 530.23 235.848 531 235.54 531C234.7 531 233.846 530.412 232.978 529.236C232.11 528.032 231.676 526.632 231.676 525.036V510.924C231.676 510.728 233.272 510.042 236.464 508.866C239.656 507.662 241.49 507.06 241.966 507.06ZM240.496 513.738C240.496 512.954 240.314 512.296 239.95 511.764C239.586 511.204 239.124 510.924 238.564 510.924C238.004 510.924 237.388 511.134 236.716 511.554V521.256C239.236 520.556 240.496 519.044 240.496 516.72V513.738ZM249.518 510.966C249.518 510.686 251.058 509.972 254.138 508.824C257.246 507.648 259.15 507.06 259.85 507.06C260.55 507.06 261.32 507.704 262.16 508.992C263 510.252 263.42 511.652 263.42 513.192V526.548C263.42 527.612 262.944 529.124 261.992 531.084C261.04 533.072 260.032 534.808 258.968 536.292C257.904 537.804 257.176 538.56 256.784 538.56C256.084 538.56 255.146 538.35 253.97 537.93C252.794 537.51 251.786 537.09 250.946 536.67L249.728 536.04V534.78H251.156C252.248 534.78 253.494 534.15 254.894 532.89C256.294 531.658 257.456 530.006 258.38 527.934C255.216 529.418 253.396 530.16 252.92 530.16C252.052 530.16 251.268 529.614 250.568 528.522C249.868 527.402 249.518 526.156 249.518 524.784V510.966ZM258.38 514.62C258.38 512.156 257.736 510.924 256.448 510.924C255.776 510.924 255.16 511.148 254.6 511.596V521.256C254.6 523.216 254.908 524.532 255.524 525.204C256.14 525.848 257.092 526.17 258.38 526.17V514.62ZM265.548 509.58L270.168 507.06C270.364 507.116 270.588 507.2 270.84 507.312C271.12 507.396 271.484 507.662 271.932 508.11C272.408 508.558 272.646 509.062 272.646 509.622C272.786 509.566 273.444 509.132 274.62 508.32C275.824 507.48 276.594 507.06 276.93 507.06C277.826 507.06 278.666 507.648 279.45 508.824C280.234 510 280.626 511.078 280.626 512.058V514.116L276.3 516.552L275.586 515.964C275.586 513.612 275.362 512.268 274.914 511.932C274.41 511.568 273.654 511.386 272.646 511.386V524.784C272.646 526.492 273.22 527.458 274.368 527.682V528.606L270.126 531C269.51 530.748 268.936 530.342 268.404 529.782C267.872 529.194 267.606 528.648 267.606 528.144V514.2C267.606 512.968 267.382 512.044 266.934 511.428C266.514 510.812 266.052 510.504 265.548 510.504V509.58ZM293.851 507.06C293.991 507.06 294.341 507.284 294.901 507.732C295.461 508.152 296.021 508.754 296.581 509.538C297.141 510.294 297.421 511.036 297.421 511.764V518.82C297.421 519.324 296.679 519.94 295.195 520.668C293.711 521.396 292.269 521.998 290.869 522.474C289.497 522.922 288.755 523.146 288.643 523.146C288.643 525.302 289.581 526.632 291.457 527.136C292.381 527.36 293.487 527.472 294.775 527.472V528.69C290.183 530.23 287.733 531 287.425 531C286.585 531 285.731 530.412 284.863 529.236C283.995 528.032 283.561 526.632 283.561 525.036V510.924C283.561 510.728 285.157 510.042 288.349 508.866C291.541 507.662 293.375 507.06 293.851 507.06ZM292.381 513.738C292.381 512.954 292.199 512.296 291.835 511.764C291.471 511.204 291.009 510.924 290.449 510.924C289.889 510.924 289.273 511.134 288.601 511.554V521.256C291.121 520.556 292.381 519.044 292.381 516.72V513.738ZM311.693 507.06C311.833 507.06 312.183 507.284 312.743 507.732C313.303 508.152 313.863 508.754 314.423 509.538C314.983 510.294 315.263 511.036 315.263 511.764V518.82C315.263 519.324 314.521 519.94 313.037 520.668C311.553 521.396 310.111 521.998 308.711 522.474C307.339 522.922 306.597 523.146 306.485 523.146C306.485 525.302 307.423 526.632 309.299 527.136C310.223 527.36 311.329 527.472 312.617 527.472V528.69C308.025 530.23 305.575 531 305.267 531C304.427 531 303.573 530.412 302.705 529.236C301.837 528.032 301.403 526.632 301.403 525.036V510.924C301.403 510.728 302.999 510.042 306.191 508.866C309.383 507.662 311.217 507.06 311.693 507.06ZM310.223 513.738C310.223 512.954 310.041 512.296 309.677 511.764C309.313 511.204 308.851 510.924 308.291 510.924C307.731 510.924 307.115 511.134 306.443 511.554V521.256C308.963 520.556 310.223 519.044 310.223 516.72V513.738ZM321.176 521.802C320.476 521.802 319.874 521.27 319.37 520.206C318.866 519.142 318.614 517.84 318.614 516.3V511.764C318.614 511.232 320.084 510.322 323.024 509.034C325.964 507.718 327.658 507.06 328.106 507.06C328.358 507.06 328.582 507.214 328.778 507.522C328.974 507.802 329.128 508.04 329.24 508.236C329.352 508.404 329.52 508.712 329.744 509.16C329.996 509.58 330.206 509.93 330.374 510.21C330.738 510.882 331.2 511.218 331.76 511.218V512.058C331.312 512.254 330.724 512.548 329.996 512.94C328.204 513.92 327.238 514.41 327.098 514.41C326.678 514.41 326.216 513.724 325.712 512.352C325.236 510.98 324.802 510.294 324.41 510.294C323.906 510.294 323.654 510.714 323.654 511.554V516.72C323.654 517.84 323.906 518.4 324.41 518.4C324.522 518.4 325.39 518.036 327.014 517.308C328.638 516.58 329.618 516.216 329.954 516.216C330.626 516.216 331.214 516.762 331.718 517.854C332.25 518.918 332.516 520.29 332.516 521.97V526.716C332.516 527.248 330.906 528.172 327.686 529.488C324.494 530.776 322.66 531.42 322.184 531.42C321.988 531.42 321.792 531.252 321.596 530.916C321.428 530.552 321.176 530.006 320.84 529.278C320.532 528.55 320.224 527.934 319.916 527.43C319.552 526.758 319.09 526.422 318.53 526.422V525.582C318.978 525.386 319.58 525.092 320.336 524.7C322.1 523.72 323.052 523.23 323.192 523.23C323.612 523.23 324.13 524.056 324.746 525.708C325.39 527.36 325.908 528.186 326.3 528.186C326.58 528.186 326.846 528.074 327.098 527.85C327.35 527.626 327.476 527.318 327.476 526.926V521.676C327.476 520.416 327.126 519.786 326.426 519.786C326.202 519.786 325.32 520.122 323.78 520.794C322.24 521.466 321.372 521.802 321.176 521.802ZM177.941 556.692V561.69H180.083L179.663 563.748H177.941V578.784C177.941 580.492 178.515 581.458 179.663 581.682V582.606L175.421 585C174.805 584.748 174.231 584.342 173.699 583.782C173.167 583.194 172.901 582.648 172.901 582.144V563.79H171.179L171.599 562.026C172.439 562.026 173.447 561.466 174.623 560.346C175.827 559.198 176.541 557.98 176.765 556.692H177.941ZM182.129 578.868V564.924C182.129 564.728 183.725 564.042 186.917 562.866C190.109 561.662 191.943 561.06 192.419 561.06C192.895 561.06 193.609 561.634 194.561 562.782C195.541 563.93 196.031 564.966 196.031 565.89V581.094C196.031 581.318 194.491 582.032 191.411 583.236C188.359 584.412 186.483 585 185.783 585C185.111 585 184.327 584.398 183.431 583.194C182.563 581.99 182.129 580.548 182.129 578.868ZM189.311 581.136C189.843 581.136 190.389 580.912 190.949 580.464V568.074C190.949 566.002 190.235 564.966 188.807 564.966C188.247 564.966 187.701 565.176 187.169 565.596V578.028C187.169 580.1 187.883 581.136 189.311 581.136ZM213.255 556.692V561.69H215.397L214.977 563.748H213.255V578.784C213.255 580.492 213.829 581.458 214.977 581.682V582.606L210.735 585C210.119 584.748 209.545 584.342 209.013 583.782C208.481 583.194 208.215 582.648 208.215 582.144V563.79H206.493L206.913 562.026C207.753 562.026 208.761 561.466 209.937 560.346C211.141 559.198 211.855 557.98 212.079 556.692H213.255ZM217.444 582.144V561.354C217.444 560.598 217.318 560.066 217.066 559.758C216.814 559.422 216.38 559.254 215.764 559.254V558.078C219.404 556.174 222.652 554.382 225.508 552.702L226.18 554.046C225.9 554.186 225.508 554.466 225.004 554.886C224.5 555.278 224.08 555.684 223.744 556.104C222.904 557.168 222.484 558.372 222.484 559.716V563.286C225.368 561.802 227.048 561.06 227.524 561.06C228.42 561.06 229.274 561.62 230.086 562.74C230.898 563.86 231.304 565.092 231.304 566.436V578.784C231.304 580.324 231.99 581.234 233.362 581.514V582.438L228.784 585C228.168 584.748 227.594 584.342 227.062 583.782C226.53 583.194 226.264 582.648 226.264 582.144V569.964C226.264 567.22 225.76 565.666 224.752 565.302C224.276 565.134 223.52 565.05 222.484 565.05V578.784C222.484 580.492 223.058 581.458 224.206 581.682V582.606L219.964 585C219.348 584.748 218.774 584.342 218.242 583.782C217.71 583.194 217.444 582.648 217.444 582.144ZM245.781 561.06C245.921 561.06 246.271 561.284 246.831 561.732C247.391 562.152 247.951 562.754 248.511 563.538C249.071 564.294 249.351 565.036 249.351 565.764V572.82C249.351 573.324 248.609 573.94 247.125 574.668C245.641 575.396 244.199 575.998 242.799 576.474C241.427 576.922 240.685 577.146 240.573 577.146C240.573 579.302 241.511 580.632 243.387 581.136C244.311 581.36 245.417 581.472 246.705 581.472V582.69C242.113 584.23 239.663 585 239.355 585C238.515 585 237.661 584.412 236.793 583.236C235.925 582.032 235.491 580.632 235.491 579.036V564.924C235.491 564.728 237.087 564.042 240.279 562.866C243.471 561.662 245.305 561.06 245.781 561.06ZM244.311 567.738C244.311 566.954 244.129 566.296 243.765 565.764C243.401 565.204 242.939 564.924 242.379 564.924C241.819 564.924 241.203 565.134 240.531 565.554V575.256C243.051 574.556 244.311 573.044 244.311 570.72V567.738ZM268.008 556.776C267.504 556.776 266.958 556.986 266.37 557.406V571.056C267.098 571.056 267.91 570.832 268.806 570.384C269.702 569.908 270.15 569.418 270.15 568.914V559.884C270.15 557.812 269.436 556.776 268.008 556.776ZM261.33 580.716V558.96C261.33 557.252 260.756 556.286 259.608 556.062V555.138L263.85 552.744C264.41 552.968 264.97 553.374 265.53 553.962C266.09 554.55 266.37 555.082 266.37 555.558C269.45 553.682 271.214 552.744 271.662 552.744C272.11 552.744 272.81 553.318 273.762 554.466C274.742 555.614 275.232 556.65 275.232 557.574V569.376C275.232 569.6 273.706 570.314 270.654 571.518C271.942 575.858 273.454 578.784 275.19 580.296C275.974 580.94 276.772 581.262 277.584 581.262V582.522C274.98 584.174 273.328 585 272.628 585C271.704 585 270.528 583.264 269.1 579.792C267.7 576.32 266.944 574.024 266.832 572.904L266.37 573.03V578.532C266.37 579.568 266.482 580.31 266.706 580.758C266.93 581.206 267.392 581.43 268.092 581.43V582.732L259.482 586.344L258.81 585C259.426 585 260.014 584.636 260.574 583.908C261.078 583.208 261.33 582.144 261.33 580.716ZM284.499 563.916V578.784C284.499 580.492 285.073 581.458 286.221 581.682V582.606L281.979 585C281.363 584.748 280.789 584.342 280.257 583.782C279.725 583.194 279.459 582.648 279.459 582.144V567.276C279.459 565.568 278.885 564.602 277.737 564.378V563.454L281.979 561.06C282.595 561.312 283.169 561.732 283.701 562.32C284.233 562.88 284.499 563.412 284.499 563.916ZM278.829 555.81V553.248C278.829 553.164 279.403 552.912 280.551 552.492C281.727 552.044 282.399 551.82 282.567 551.82C282.763 551.82 283.029 552.058 283.365 552.534C283.729 553.01 283.911 553.5 283.911 554.004V557.07C283.911 557.154 283.351 557.42 282.231 557.868C281.111 558.288 280.425 558.498 280.173 558.498C279.921 558.498 279.627 558.26 279.291 557.784C278.983 557.28 278.829 556.622 278.829 555.81ZM288.688 564.966C288.688 564.686 290.228 563.972 293.308 562.824C296.416 561.648 298.32 561.06 299.02 561.06C299.72 561.06 300.49 561.704 301.33 562.992C302.17 564.252 302.59 565.652 302.59 567.192V580.548C302.59 581.612 302.114 583.124 301.162 585.084C300.21 587.072 299.202 588.808 298.138 590.292C297.074 591.804 296.346 592.56 295.954 592.56C295.254 592.56 294.316 592.35 293.14 591.93C291.964 591.51 290.956 591.09 290.116 590.67L288.898 590.04V588.78H290.326C291.418 588.78 292.664 588.15 294.064 586.89C295.464 585.658 296.626 584.006 297.55 581.934C294.386 583.418 292.566 584.16 292.09 584.16C291.222 584.16 290.438 583.614 289.738 582.522C289.038 581.402 288.688 580.156 288.688 578.784V564.966ZM297.55 568.62C297.55 566.156 296.906 564.924 295.618 564.924C294.946 564.924 294.33 565.148 293.77 565.596V575.256C293.77 577.216 294.078 578.532 294.694 579.204C295.31 579.848 296.262 580.17 297.55 580.17V568.62ZM306.776 582.144V561.354C306.776 560.598 306.65 560.066 306.398 559.758C306.146 559.422 305.712 559.254 305.096 559.254V558.078C308.736 556.174 311.984 554.382 314.84 552.702L315.512 554.046C315.232 554.186 314.84 554.466 314.336 554.886C313.832 555.278 313.412 555.684 313.076 556.104C312.236 557.168 311.816 558.372 311.816 559.716V563.286C314.7 561.802 316.38 561.06 316.856 561.06C317.752 561.06 318.606 561.62 319.418 562.74C320.23 563.86 320.636 565.092 320.636 566.436V578.784C320.636 580.324 321.322 581.234 322.694 581.514V582.438L318.116 585C317.5 584.748 316.926 584.342 316.394 583.782C315.862 583.194 315.596 582.648 315.596 582.144V569.964C315.596 567.22 315.092 565.666 314.084 565.302C313.608 565.134 312.852 565.05 311.816 565.05V578.784C311.816 580.492 312.39 581.458 313.538 581.682V582.606L309.296 585C308.68 584.748 308.106 584.342 307.574 583.782C307.042 583.194 306.776 582.648 306.776 582.144ZM329.863 556.692V561.69H332.005L331.585 563.748H329.863V578.784C329.863 580.492 330.437 581.458 331.585 581.682V582.606L327.343 585C326.727 584.748 326.153 584.342 325.621 583.782C325.089 583.194 324.823 582.648 324.823 582.144V563.79H323.101L323.521 562.026C324.361 562.026 325.369 561.466 326.545 560.346C327.749 559.198 328.463 557.98 328.687 556.692H329.863Z" fill="white"/>
<g filter="url(#filter0_d)">
<rect x="151.376" y="211" width="200" height="200" rx="48" fill="white"/>
<rect x="152.376" y="212" width="198" height="198" rx="47" stroke="black" stroke-width="2"/>
</g>
<path d="M241.59 319.044H258.659L250.238 292.818L241.59 319.044Z" fill="black"/>
<path d="M250.282 242C212.227 242 181.376 272.849 181.376 310.906C181.376 348.963 212.227 379.812 250.282 379.812C288.337 379.812 319.188 348.961 319.188 310.906C319.188 272.849 288.337 242 250.282 242ZM266.744 344.229L262.348 330.528H237.803L233.285 344.229H218.718L242.509 277.583H258.264L281.843 344.229H266.744Z" fill="black"/>
<path d="M114.142 135.917L59.7751 190.284L114.142 244.65" stroke="white" stroke-width="9.1875" stroke-linecap="round" stroke-linejoin="round"/>
<path d="M73.3668 190.284L323.114 190.284C373.03 190.284 413.159 232.189 413.159 282.028L413.159 299.017" stroke="white" stroke-width="9.1875" stroke-linecap="round" stroke-linejoin="round"/>
<defs>
<filter id="filter0_d" x="148.376" y="210" width="210" height="210" filterUnits="userSpaceOnUse" color-interpolation-filters="sRGB">
<feFlood flood-opacity="0" result="BackgroundImageFix"/>
<feColorMatrix in="SourceAlpha" type="matrix" values="0 0 0 0 0 0 0 0 0 0 0 0 0 0 0 0 0 0 127 0"/>
<feOffset dx="2" dy="4"/>
<feGaussianBlur stdDeviation="2.5"/>
<feColorMatrix type="matrix" values="0 0 0 0 1 0 0 0 0 1 0 0 0 0 1 0 0 0 1 0"/>
<feBlend mode="normal" in2="BackgroundImageFix" result="effect1_dropShadow"/>
<feBlend mode="normal" in="SourceGraphic" in2="effect1_dropShadow" result="shape"/>
</filter>
</defs>
</svg>
