<svg width="170" height="222" viewBox="0 0 520 622" fill="none" xmlns="http://www.w3.org/2000/svg">
<g filter="url(#filter0_d)">
<rect x="168" y="211" width="200" height="200" rx="48" fill="white"/>
<rect x="169" y="212" width="198" height="198" rx="47" stroke="black" stroke-width="2"/>
</g>
<g filter="url(#filter1_d)">
<path d="M268.963 288.751H256.101V332.249H268.963C275.544 332.249 280.13 329.011 282.728 322.529C284.145 318.971 284.857 314.735 284.857 309.825C284.857 303.042 283.792 297.833 281.665 294.204C279.536 290.568 275.302 288.751 268.963 288.751Z" fill="black"/>
<path d="M268.5 241.594C230.445 241.594 199.594 272.445 199.594 310.5C199.594 348.555 230.445 379.406 268.5 379.406C306.555 379.406 337.406 348.555 337.406 310.5C337.406 272.445 306.555 241.594 268.5 241.594ZM293.671 331.388C288.843 339.677 281.392 343.823 271.318 343.823H242.582V277.177H271.318C275.45 277.234 278.891 277.719 281.636 278.622C286.31 280.161 290.098 282.977 292.992 287.079C295.316 290.393 296.896 293.983 297.742 297.842C298.587 301.701 299.009 305.378 299.009 308.874C299.009 317.735 297.232 325.241 293.671 331.388Z" fill="black"/>
</g>
<path d="M177.291 472.716V450.456L178.593 449.196H175.947C174.239 449.196 173.273 449.658 173.049 450.582H172.125L169.731 447.138C170.067 446.606 170.501 446.13 171.033 445.71C171.565 445.29 172.083 445.08 172.587 445.08H183.675C185.383 445.08 186.349 444.618 186.573 443.694H187.497L189.891 447.138C189.555 447.67 189.121 448.146 188.589 448.566C188.057 448.986 187.539 449.196 187.035 449.196H182.331V470.532C182.331 471.568 182.443 472.31 182.667 472.758C182.891 473.206 183.353 473.43 184.053 473.43V474.732L175.443 478.344L174.771 477C175.387 477 175.975 476.636 176.535 475.908C177.039 475.208 177.291 474.144 177.291 472.716ZM194.647 470.448C194.647 471.176 194.857 471.778 195.277 472.254C195.725 472.702 196.215 472.926 196.747 472.926C197.279 472.926 197.839 472.716 198.427 472.296V459.234C198.427 457.526 197.853 456.56 196.705 456.336V455.412L200.947 453.018C201.563 453.27 202.137 453.69 202.669 454.278C203.201 454.838 203.467 455.37 203.467 455.874V470.112C203.467 471.036 203.663 471.834 204.055 472.506C204.447 473.178 204.937 473.514 205.525 473.514V474.438C205.329 474.466 203.803 475.32 200.947 477C200.303 476.72 199.715 476.314 199.183 475.782C198.679 475.222 198.427 474.69 198.427 474.186L193.177 477C193.093 476.944 192.967 476.874 192.799 476.79C192.631 476.678 192.337 476.468 191.917 476.16C191.525 475.824 191.175 475.474 190.867 475.11C190.027 474.186 189.607 473.136 189.607 471.96V459.234C189.607 457.694 188.921 456.784 187.549 456.504V455.58L192.127 453.018C192.743 453.27 193.317 453.69 193.849 454.278C194.381 454.838 194.647 455.37 194.647 455.874V470.448ZM205.596 455.58L210.216 453.06C210.412 453.116 210.636 453.2 210.888 453.312C211.168 453.396 211.532 453.662 211.98 454.11C212.456 454.558 212.694 455.062 212.694 455.622C212.834 455.566 213.492 455.132 214.668 454.32C215.872 453.48 216.642 453.06 216.978 453.06C217.874 453.06 218.714 453.648 219.498 454.824C220.282 456 220.674 457.078 220.674 458.058V460.116L216.348 462.552L215.634 461.964C215.634 459.612 215.41 458.268 214.962 457.932C214.458 457.568 213.702 457.386 212.694 457.386V470.784C212.694 472.492 213.268 473.458 214.416 473.682V474.606L210.174 477C209.558 476.748 208.984 476.342 208.452 475.782C207.92 475.194 207.654 474.648 207.654 474.144V460.2C207.654 458.968 207.43 458.044 206.982 457.428C206.562 456.812 206.1 456.504 205.596 456.504V455.58ZM223.609 474.144V459.906C223.609 458.982 223.413 458.184 223.021 457.512C222.629 456.84 222.139 456.504 221.551 456.504V455.58C221.747 455.552 223.273 454.698 226.129 453.018C226.325 453.074 226.563 453.158 226.843 453.27C227.123 453.354 227.487 453.62 227.935 454.068C228.411 454.516 228.649 455.034 228.649 455.622C228.817 455.538 229.293 455.272 230.077 454.824C232.149 453.648 233.381 453.06 233.773 453.06C234.669 453.06 235.509 453.648 236.293 454.824C237.077 456 237.469 457.078 237.469 458.058V470.784C237.469 472.324 238.155 473.234 239.527 473.514V474.438L234.949 477C234.333 476.748 233.759 476.342 233.227 475.782C232.695 475.194 232.429 474.648 232.429 474.144V461.964C232.429 460.396 232.247 459.206 231.883 458.394C231.547 457.554 230.931 457.134 230.035 457.134L228.649 457.386V470.784C228.649 472.492 229.223 473.458 230.371 473.682V474.606L226.129 477C225.513 476.748 224.939 476.342 224.407 475.782C223.875 475.194 223.609 474.648 223.609 474.144ZM254.694 448.692V453.69H256.836L256.416 455.748H254.694V470.784C254.694 472.492 255.268 473.458 256.416 473.682V474.606L252.174 477C251.558 476.748 250.984 476.342 250.452 475.782C249.92 475.194 249.654 474.648 249.654 474.144V455.79H247.932L248.352 454.026C249.192 454.026 250.2 453.466 251.376 452.346C252.58 451.198 253.294 449.98 253.518 448.692H254.694ZM258.882 474.144V453.354C258.882 452.598 258.756 452.066 258.504 451.758C258.252 451.422 257.818 451.254 257.202 451.254V450.078C260.842 448.174 264.09 446.382 266.946 444.702L267.618 446.046C267.338 446.186 266.946 446.466 266.442 446.886C265.938 447.278 265.518 447.684 265.182 448.104C264.342 449.168 263.922 450.372 263.922 451.716V455.286C266.806 453.802 268.486 453.06 268.962 453.06C269.858 453.06 270.712 453.62 271.524 454.74C272.336 455.86 272.742 457.092 272.742 458.436V470.784C272.742 472.324 273.428 473.234 274.8 473.514V474.438L270.222 477C269.606 476.748 269.032 476.342 268.5 475.782C267.968 475.194 267.702 474.648 267.702 474.144V461.964C267.702 459.22 267.198 457.666 266.19 457.302C265.714 457.134 264.958 457.05 263.922 457.05V470.784C263.922 472.492 264.496 473.458 265.644 473.682V474.606L261.402 477C260.786 476.748 260.212 476.342 259.68 475.782C259.148 475.194 258.882 474.648 258.882 474.144ZM287.219 453.06C287.359 453.06 287.709 453.284 288.269 453.732C288.829 454.152 289.389 454.754 289.949 455.538C290.509 456.294 290.789 457.036 290.789 457.764V464.82C290.789 465.324 290.047 465.94 288.563 466.668C287.079 467.396 285.637 467.998 284.237 468.474C282.865 468.922 282.123 469.146 282.011 469.146C282.011 471.302 282.949 472.632 284.825 473.136C285.749 473.36 286.855 473.472 288.143 473.472V474.69C283.551 476.23 281.101 477 280.793 477C279.953 477 279.099 476.412 278.231 475.236C277.363 474.032 276.929 472.632 276.929 471.036V456.924C276.929 456.728 278.525 456.042 281.717 454.866C284.909 453.662 286.743 453.06 287.219 453.06ZM285.749 459.738C285.749 458.954 285.567 458.296 285.203 457.764C284.839 457.204 284.377 456.924 283.817 456.924C283.257 456.924 282.641 457.134 281.969 457.554V467.256C284.489 466.556 285.749 465.044 285.749 462.72V459.738ZM305.331 463.602C304.631 463.602 304.029 463.07 303.525 462.006C303.021 460.942 302.769 459.64 302.769 458.1V449.364C302.769 448.832 304.239 447.922 307.179 446.634C310.119 445.318 311.813 444.66 312.261 444.66C312.597 444.66 313.073 445.22 313.689 446.34C313.829 446.62 314.025 446.998 314.277 447.474C314.557 447.95 314.781 448.342 314.949 448.65C315.313 449.322 315.775 449.658 316.335 449.658V450.498C315.887 450.694 315.285 450.988 314.529 451.38C312.765 452.36 311.813 452.85 311.673 452.85C311.253 452.85 310.721 452.024 310.077 450.372C309.461 448.72 308.957 447.894 308.565 447.894C308.061 447.894 307.809 448.314 307.809 449.154V458.52C307.809 459.64 308.061 460.2 308.565 460.2C308.677 460.2 309.545 459.836 311.169 459.108C312.793 458.38 313.773 458.016 314.109 458.016C314.781 458.016 315.369 458.562 315.873 459.654C316.405 460.718 316.671 462.09 316.671 463.77V472.716C316.671 473.248 315.061 474.172 311.841 475.488C308.649 476.776 306.815 477.42 306.339 477.42C306.143 477.42 305.919 477.182 305.667 476.706C305.415 476.23 305.079 475.558 304.659 474.69C304.267 473.794 303.903 473.052 303.567 472.464C303.259 471.876 302.825 471.582 302.265 471.582V470.742C302.713 470.546 303.301 470.252 304.029 469.86C305.821 468.88 306.787 468.39 306.927 468.39C307.347 468.39 307.935 469.356 308.691 471.288C309.475 473.22 310.063 474.186 310.455 474.186C310.735 474.186 311.001 474.074 311.253 473.85C311.505 473.626 311.631 473.318 311.631 472.926V463.476C311.631 462.216 311.281 461.586 310.581 461.586C310.357 461.586 309.475 461.922 307.935 462.594C306.395 463.266 305.527 463.602 305.331 463.602ZM320.611 474.144V453.354C320.611 452.598 320.485 452.066 320.233 451.758C319.981 451.422 319.547 451.254 318.931 451.254V450.078C322.571 448.174 325.819 446.382 328.675 444.702L329.347 446.046C329.067 446.186 328.675 446.466 328.171 446.886C327.667 447.278 327.247 447.684 326.911 448.104C326.071 449.168 325.651 450.372 325.651 451.716V455.286C328.535 453.802 330.215 453.06 330.691 453.06C331.587 453.06 332.441 453.62 333.253 454.74C334.065 455.86 334.471 457.092 334.471 458.436V470.784C334.471 472.324 335.157 473.234 336.529 473.514V474.438L331.951 477C331.335 476.748 330.761 476.342 330.229 475.782C329.697 475.194 329.431 474.648 329.431 474.144V461.964C329.431 459.22 328.927 457.666 327.919 457.302C327.443 457.134 326.687 457.05 325.651 457.05V470.784C325.651 472.492 326.225 473.458 327.373 473.682V474.606L323.131 477C322.515 476.748 321.941 476.342 321.409 475.782C320.877 475.194 320.611 474.648 320.611 474.144ZM343.698 455.916V470.784C343.698 472.492 344.272 473.458 345.42 473.682V474.606L341.178 477C340.562 476.748 339.988 476.342 339.456 475.782C338.924 475.194 338.658 474.648 338.658 474.144V459.276C338.658 457.568 338.084 456.602 336.936 456.378V455.454L341.178 453.06C341.794 453.312 342.368 453.732 342.9 454.32C343.432 454.88 343.698 455.412 343.698 455.916ZM338.028 447.81V445.248C338.028 445.164 338.602 444.912 339.75 444.492C340.926 444.044 341.598 443.82 341.766 443.82C341.962 443.82 342.228 444.058 342.564 444.534C342.928 445.01 343.11 445.5 343.11 446.004V449.07C343.11 449.154 342.55 449.42 341.43 449.868C340.31 450.288 339.624 450.498 339.372 450.498C339.12 450.498 338.826 450.26 338.49 449.784C338.182 449.28 338.028 448.622 338.028 447.81ZM354.606 456.966C354.074 456.966 353.528 457.19 352.968 457.638V474.312C353.696 474.312 354.508 474.074 355.404 473.598C356.3 473.122 356.748 472.618 356.748 472.086V460.074C356.748 458.002 356.034 456.966 354.606 456.966ZM347.886 481.62V459.528C347.886 458.884 347.704 458.254 347.34 457.638C347.004 457.022 346.514 456.672 345.87 456.588V455.664C346.066 455.636 347.592 454.782 350.448 453.102C351.092 453.382 351.666 453.802 352.17 454.362C352.702 454.894 352.968 455.398 352.968 455.874C355.964 454.026 357.714 453.102 358.218 453.102C358.414 453.102 358.778 453.326 359.31 453.774C359.87 454.194 360.416 454.824 360.948 455.664C361.508 456.476 361.788 457.316 361.788 458.184V473.136C361.788 473.332 360.542 473.92 358.05 474.9C355.586 475.852 353.878 476.454 352.926 476.706V478.26C352.926 479.968 353.5 480.934 354.648 481.158V482.082L350.406 484.476C349.79 484.224 349.216 483.804 348.684 483.216C348.152 482.656 347.886 482.124 347.886 481.62ZM194.87 525.624V519.324H186.218C186.106 519.324 185.91 519.072 185.63 518.568C185.378 518.064 185.252 517.672 185.252 517.392C185.252 517.084 185.98 515.404 187.436 512.352C188.892 509.272 190.46 506.22 192.14 503.196C193.848 500.172 194.954 498.66 195.458 498.66C197.334 499.136 198.678 499.78 199.49 500.592C199.798 500.9 199.952 501.208 199.952 501.516V516.846H201.632V518.274L199.952 519.324V523.986C199.952 524.742 200.078 525.288 200.33 525.624C200.582 525.932 201.016 526.086 201.632 526.086V527.262C195.948 529.754 193.092 531 193.064 531L192.392 529.656C192.588 529.656 192.854 529.558 193.19 529.362C193.526 529.166 193.806 528.942 194.03 528.69C194.59 527.99 194.87 526.968 194.87 525.624ZM194.912 516.846V505.59L189.242 516.93C192.994 516.902 194.884 516.874 194.912 516.846ZM209.207 503.196V510.924C209.207 512.044 209.459 512.604 209.963 512.604C210.075 512.604 210.943 512.24 212.567 511.512C214.191 510.784 215.171 510.42 215.507 510.42C216.179 510.42 216.767 511.022 217.271 512.226C217.803 513.43 218.069 514.886 218.069 516.594V526.716C218.069 527.248 216.459 528.172 213.239 529.488C210.047 530.776 208.213 531.42 207.737 531.42C207.541 531.42 207.317 531.182 207.065 530.706C206.813 530.23 206.477 529.558 206.057 528.69C205.665 527.794 205.301 527.052 204.965 526.464C204.657 525.876 204.223 525.582 203.663 525.582V524.742C204.111 524.546 204.699 524.252 205.427 523.86C207.219 522.88 208.185 522.39 208.325 522.39C208.745 522.39 209.333 523.216 210.089 524.868C210.873 526.52 211.461 527.346 211.853 527.346C212.133 527.346 212.399 527.234 212.651 527.01C212.903 526.786 213.029 526.478 213.029 526.086V517.14C213.029 515.88 212.679 515.25 211.979 515.25C211.755 515.25 210.873 515.586 209.333 516.258C207.793 516.93 206.925 517.266 206.729 517.266C206.029 517.266 205.427 516.734 204.923 515.67C204.419 514.606 204.167 513.304 204.167 511.764V499.878C204.167 499.346 204.545 499.08 205.301 499.08H211.685C213.449 499.08 214.471 498.632 214.751 497.736L215.717 497.694L218.027 501.138C217.831 501.67 217.439 502.146 216.851 502.566C216.263 502.986 215.661 503.196 215.045 503.196H209.207ZM238.149 498.66C238.905 498.66 240.095 500.494 241.719 504.162C243.343 507.83 244.155 510.364 244.155 511.764V524.574C244.155 525.218 244.323 525.848 244.659 526.464C245.023 527.08 245.527 527.43 246.171 527.514V528.438C245.975 528.466 244.449 529.32 241.593 531C240.949 530.72 240.361 530.314 239.829 529.782C239.325 529.222 239.073 528.704 239.073 528.228C236.077 530.076 234.327 531 233.823 531C233.627 531 233.249 530.79 232.689 530.37C232.157 529.922 231.611 529.292 231.051 528.48C230.519 527.64 230.253 526.786 230.253 525.918V510.924C230.253 510.644 232.619 509.678 237.351 508.026C236.343 505.814 235.531 504.26 234.915 503.364C234.299 502.468 233.697 502.02 233.109 502.02H231.723V500.76C234.831 499.36 236.973 498.66 238.149 498.66ZM237.435 527.136C237.967 527.136 238.513 526.912 239.073 526.464V511.848C239.073 511.68 238.947 511.33 238.695 510.798C238.471 510.238 238.303 509.958 238.191 509.958C237.379 509.958 236.553 510.21 235.713 510.714L235.293 510.966V524.028C235.293 526.1 236.007 527.136 237.435 527.136ZM258.59 507.06C258.73 507.06 259.08 507.284 259.64 507.732C260.2 508.152 260.76 508.754 261.32 509.538C261.88 510.294 262.16 511.036 262.16 511.764V518.82C262.16 519.324 261.418 519.94 259.934 520.668C258.45 521.396 257.008 521.998 255.608 522.474C254.236 522.922 253.494 523.146 253.382 523.146C253.382 525.302 254.32 526.632 256.196 527.136C257.12 527.36 258.226 527.472 259.514 527.472V528.69C254.922 530.23 252.472 531 252.164 531C251.324 531 250.47 530.412 249.602 529.236C248.734 528.032 248.3 526.632 248.3 525.036V510.924C248.3 510.728 249.896 510.042 253.088 508.866C256.28 507.662 258.114 507.06 258.59 507.06ZM257.12 513.738C257.12 512.954 256.938 512.296 256.574 511.764C256.21 511.204 255.748 510.924 255.188 510.924C254.628 510.924 254.012 511.134 253.34 511.554V521.256C255.86 520.556 257.12 519.044 257.12 516.72V513.738ZM266.142 510.966C266.142 510.686 267.682 509.972 270.762 508.824C273.87 507.648 275.774 507.06 276.474 507.06C277.174 507.06 277.944 507.704 278.784 508.992C279.624 510.252 280.044 511.652 280.044 513.192V526.548C280.044 527.612 279.568 529.124 278.616 531.084C277.664 533.072 276.656 534.808 275.592 536.292C274.528 537.804 273.8 538.56 273.408 538.56C272.708 538.56 271.77 538.35 270.594 537.93C269.418 537.51 268.41 537.09 267.57 536.67L266.352 536.04V534.78H267.78C268.872 534.78 270.118 534.15 271.518 532.89C272.918 531.658 274.08 530.006 275.004 527.934C271.84 529.418 270.02 530.16 269.544 530.16C268.676 530.16 267.892 529.614 267.192 528.522C266.492 527.402 266.142 526.156 266.142 524.784V510.966ZM275.004 514.62C275.004 512.156 274.36 510.924 273.072 510.924C272.4 510.924 271.784 511.148 271.224 511.596V521.256C271.224 523.216 271.532 524.532 272.148 525.204C272.764 525.848 273.716 526.17 275.004 526.17V514.62ZM282.172 509.58L286.792 507.06C286.988 507.116 287.212 507.2 287.464 507.312C287.744 507.396 288.108 507.662 288.556 508.11C289.032 508.558 289.27 509.062 289.27 509.622C289.41 509.566 290.068 509.132 291.244 508.32C292.448 507.48 293.218 507.06 293.554 507.06C294.45 507.06 295.29 507.648 296.074 508.824C296.858 510 297.25 511.078 297.25 512.058V514.116L292.924 516.552L292.21 515.964C292.21 513.612 291.986 512.268 291.538 511.932C291.034 511.568 290.278 511.386 289.27 511.386V524.784C289.27 526.492 289.844 527.458 290.992 527.682V528.606L286.75 531C286.134 530.748 285.56 530.342 285.028 529.782C284.496 529.194 284.23 528.648 284.23 528.144V514.2C284.23 512.968 284.006 512.044 283.558 511.428C283.138 510.812 282.676 510.504 282.172 510.504V509.58ZM310.475 507.06C310.615 507.06 310.965 507.284 311.525 507.732C312.085 508.152 312.645 508.754 313.205 509.538C313.765 510.294 314.045 511.036 314.045 511.764V518.82C314.045 519.324 313.303 519.94 311.819 520.668C310.335 521.396 308.893 521.998 307.493 522.474C306.121 522.922 305.379 523.146 305.267 523.146C305.267 525.302 306.205 526.632 308.081 527.136C309.005 527.36 310.111 527.472 311.399 527.472V528.69C306.807 530.23 304.357 531 304.049 531C303.209 531 302.355 530.412 301.487 529.236C300.619 528.032 300.185 526.632 300.185 525.036V510.924C300.185 510.728 301.781 510.042 304.973 508.866C308.165 507.662 309.999 507.06 310.475 507.06ZM309.005 513.738C309.005 512.954 308.823 512.296 308.459 511.764C308.095 511.204 307.633 510.924 307.073 510.924C306.513 510.924 305.897 511.134 305.225 511.554V521.256C307.745 520.556 309.005 519.044 309.005 516.72V513.738ZM328.317 507.06C328.457 507.06 328.807 507.284 329.367 507.732C329.927 508.152 330.487 508.754 331.047 509.538C331.607 510.294 331.887 511.036 331.887 511.764V518.82C331.887 519.324 331.145 519.94 329.661 520.668C328.177 521.396 326.735 521.998 325.335 522.474C323.963 522.922 323.221 523.146 323.109 523.146C323.109 525.302 324.047 526.632 325.923 527.136C326.847 527.36 327.953 527.472 329.241 527.472V528.69C324.649 530.23 322.199 531 321.891 531C321.051 531 320.197 530.412 319.329 529.236C318.461 528.032 318.027 526.632 318.027 525.036V510.924C318.027 510.728 319.623 510.042 322.815 508.866C326.007 507.662 327.841 507.06 328.317 507.06ZM326.847 513.738C326.847 512.954 326.665 512.296 326.301 511.764C325.937 511.204 325.475 510.924 324.915 510.924C324.355 510.924 323.739 511.134 323.067 511.554V521.256C325.587 520.556 326.847 519.044 326.847 516.72V513.738ZM337.801 521.802C337.101 521.802 336.499 521.27 335.995 520.206C335.491 519.142 335.239 517.84 335.239 516.3V511.764C335.239 511.232 336.709 510.322 339.649 509.034C342.589 507.718 344.283 507.06 344.731 507.06C344.983 507.06 345.207 507.214 345.403 507.522C345.599 507.802 345.753 508.04 345.865 508.236C345.977 508.404 346.145 508.712 346.369 509.16C346.621 509.58 346.831 509.93 346.999 510.21C347.363 510.882 347.825 511.218 348.385 511.218V512.058C347.937 512.254 347.349 512.548 346.621 512.94C344.829 513.92 343.863 514.41 343.723 514.41C343.303 514.41 342.841 513.724 342.337 512.352C341.861 510.98 341.427 510.294 341.035 510.294C340.531 510.294 340.279 510.714 340.279 511.554V516.72C340.279 517.84 340.531 518.4 341.035 518.4C341.147 518.4 342.015 518.036 343.639 517.308C345.263 516.58 346.243 516.216 346.579 516.216C347.251 516.216 347.839 516.762 348.343 517.854C348.875 518.918 349.141 520.29 349.141 521.97V526.716C349.141 527.248 347.531 528.172 344.311 529.488C341.119 530.776 339.285 531.42 338.809 531.42C338.613 531.42 338.417 531.252 338.221 530.916C338.053 530.552 337.801 530.006 337.465 529.278C337.157 528.55 336.849 527.934 336.541 527.43C336.177 526.758 335.715 526.422 335.155 526.422V525.582C335.603 525.386 336.205 525.092 336.961 524.7C338.725 523.72 339.677 523.23 339.817 523.23C340.237 523.23 340.755 524.056 341.371 525.708C342.015 527.36 342.533 528.186 342.925 528.186C343.205 528.186 343.471 528.074 343.723 527.85C343.975 527.626 344.101 527.318 344.101 526.926V521.676C344.101 520.416 343.751 519.786 343.051 519.786C342.827 519.786 341.945 520.122 340.405 520.794C338.865 521.466 337.997 521.802 337.801 521.802ZM194.565 556.692V561.69H196.707L196.287 563.748H194.565V578.784C194.565 580.492 195.139 581.458 196.287 581.682V582.606L192.045 585C191.429 584.748 190.855 584.342 190.323 583.782C189.791 583.194 189.525 582.648 189.525 582.144V563.79H187.803L188.223 562.026C189.063 562.026 190.071 561.466 191.247 560.346C192.451 559.198 193.165 557.98 193.389 556.692H194.565ZM198.753 578.868V564.924C198.753 564.728 200.349 564.042 203.541 562.866C206.733 561.662 208.567 561.06 209.043 561.06C209.519 561.06 210.233 561.634 211.185 562.782C212.165 563.93 212.655 564.966 212.655 565.89V581.094C212.655 581.318 211.115 582.032 208.035 583.236C204.983 584.412 203.107 585 202.407 585C201.735 585 200.951 584.398 200.055 583.194C199.187 581.99 198.753 580.548 198.753 578.868ZM205.935 581.136C206.467 581.136 207.013 580.912 207.573 580.464V568.074C207.573 566.002 206.859 564.966 205.431 564.966C204.871 564.966 204.325 565.176 203.793 565.596V578.028C203.793 580.1 204.507 581.136 205.935 581.136ZM229.879 556.692V561.69H232.021L231.601 563.748H229.879V578.784C229.879 580.492 230.453 581.458 231.601 581.682V582.606L227.359 585C226.743 584.748 226.169 584.342 225.637 583.782C225.105 583.194 224.839 582.648 224.839 582.144V563.79H223.117L223.537 562.026C224.377 562.026 225.385 561.466 226.561 560.346C227.765 559.198 228.479 557.98 228.703 556.692H229.879ZM234.068 582.144V561.354C234.068 560.598 233.942 560.066 233.69 559.758C233.438 559.422 233.004 559.254 232.388 559.254V558.078C236.028 556.174 239.276 554.382 242.132 552.702L242.804 554.046C242.524 554.186 242.132 554.466 241.628 554.886C241.124 555.278 240.704 555.684 240.368 556.104C239.528 557.168 239.108 558.372 239.108 559.716V563.286C241.992 561.802 243.672 561.06 244.148 561.06C245.044 561.06 245.898 561.62 246.71 562.74C247.522 563.86 247.928 565.092 247.928 566.436V578.784C247.928 580.324 248.614 581.234 249.986 581.514V582.438L245.408 585C244.792 584.748 244.218 584.342 243.686 583.782C243.154 583.194 242.888 582.648 242.888 582.144V569.964C242.888 567.22 242.384 565.666 241.376 565.302C240.9 565.134 240.144 565.05 239.108 565.05V578.784C239.108 580.492 239.682 581.458 240.83 581.682V582.606L236.588 585C235.972 584.748 235.398 584.342 234.866 583.782C234.334 583.194 234.068 582.648 234.068 582.144ZM262.405 561.06C262.545 561.06 262.895 561.284 263.455 561.732C264.015 562.152 264.575 562.754 265.135 563.538C265.695 564.294 265.975 565.036 265.975 565.764V572.82C265.975 573.324 265.233 573.94 263.749 574.668C262.265 575.396 260.823 575.998 259.423 576.474C258.051 576.922 257.309 577.146 257.197 577.146C257.197 579.302 258.135 580.632 260.011 581.136C260.935 581.36 262.041 581.472 263.329 581.472V582.69C258.737 584.23 256.287 585 255.979 585C255.139 585 254.285 584.412 253.417 583.236C252.549 582.032 252.115 580.632 252.115 579.036V564.924C252.115 564.728 253.711 564.042 256.903 562.866C260.095 561.662 261.929 561.06 262.405 561.06ZM260.935 567.738C260.935 566.954 260.753 566.296 260.389 565.764C260.025 565.204 259.563 564.924 259.003 564.924C258.443 564.924 257.827 565.134 257.155 565.554V575.256C259.675 574.556 260.935 573.044 260.935 570.72V567.738ZM284.632 556.776C284.128 556.776 283.582 556.986 282.994 557.406V571.056C283.722 571.056 284.534 570.832 285.43 570.384C286.326 569.908 286.774 569.418 286.774 568.914V559.884C286.774 557.812 286.06 556.776 284.632 556.776ZM277.954 580.716V558.96C277.954 557.252 277.38 556.286 276.232 556.062V555.138L280.474 552.744C281.034 552.968 281.594 553.374 282.154 553.962C282.714 554.55 282.994 555.082 282.994 555.558C286.074 553.682 287.838 552.744 288.286 552.744C288.734 552.744 289.434 553.318 290.386 554.466C291.366 555.614 291.856 556.65 291.856 557.574V569.376C291.856 569.6 290.33 570.314 287.278 571.518C288.566 575.858 290.078 578.784 291.814 580.296C292.598 580.94 293.396 581.262 294.208 581.262V582.522C291.604 584.174 289.952 585 289.252 585C288.328 585 287.152 583.264 285.724 579.792C284.324 576.32 283.568 574.024 283.456 572.904L282.994 573.03V578.532C282.994 579.568 283.106 580.31 283.33 580.758C283.554 581.206 284.016 581.43 284.716 581.43V582.732L276.106 586.344L275.434 585C276.05 585 276.638 584.636 277.198 583.908C277.702 583.208 277.954 582.144 277.954 580.716ZM301.123 563.916V578.784C301.123 580.492 301.697 581.458 302.845 581.682V582.606L298.603 585C297.987 584.748 297.413 584.342 296.881 583.782C296.349 583.194 296.083 582.648 296.083 582.144V567.276C296.083 565.568 295.509 564.602 294.361 564.378V563.454L298.603 561.06C299.219 561.312 299.793 561.732 300.325 562.32C300.857 562.88 301.123 563.412 301.123 563.916ZM295.453 555.81V553.248C295.453 553.164 296.027 552.912 297.175 552.492C298.351 552.044 299.023 551.82 299.191 551.82C299.387 551.82 299.653 552.058 299.989 552.534C300.353 553.01 300.535 553.5 300.535 554.004V557.07C300.535 557.154 299.975 557.42 298.855 557.868C297.735 558.288 297.049 558.498 296.797 558.498C296.545 558.498 296.251 558.26 295.915 557.784C295.607 557.28 295.453 556.622 295.453 555.81ZM305.312 564.966C305.312 564.686 306.852 563.972 309.932 562.824C313.04 561.648 314.944 561.06 315.644 561.06C316.344 561.06 317.114 561.704 317.954 562.992C318.794 564.252 319.214 565.652 319.214 567.192V580.548C319.214 581.612 318.738 583.124 317.786 585.084C316.834 587.072 315.826 588.808 314.762 590.292C313.698 591.804 312.97 592.56 312.578 592.56C311.878 592.56 310.94 592.35 309.764 591.93C308.588 591.51 307.58 591.09 306.74 590.67L305.522 590.04V588.78H306.95C308.042 588.78 309.288 588.15 310.688 586.89C312.088 585.658 313.25 584.006 314.174 581.934C311.01 583.418 309.19 584.16 308.714 584.16C307.846 584.16 307.062 583.614 306.362 582.522C305.662 581.402 305.312 580.156 305.312 578.784V564.966ZM314.174 568.62C314.174 566.156 313.53 564.924 312.242 564.924C311.57 564.924 310.954 565.148 310.394 565.596V575.256C310.394 577.216 310.702 578.532 311.318 579.204C311.934 579.848 312.886 580.17 314.174 580.17V568.62ZM323.4 582.144V561.354C323.4 560.598 323.274 560.066 323.022 559.758C322.77 559.422 322.336 559.254 321.72 559.254V558.078C325.36 556.174 328.608 554.382 331.464 552.702L332.136 554.046C331.856 554.186 331.464 554.466 330.96 554.886C330.456 555.278 330.036 555.684 329.7 556.104C328.86 557.168 328.44 558.372 328.44 559.716V563.286C331.324 561.802 333.004 561.06 333.48 561.06C334.376 561.06 335.23 561.62 336.042 562.74C336.854 563.86 337.26 565.092 337.26 566.436V578.784C337.26 580.324 337.946 581.234 339.318 581.514V582.438L334.74 585C334.124 584.748 333.55 584.342 333.018 583.782C332.486 583.194 332.22 582.648 332.22 582.144V569.964C332.22 567.22 331.716 565.666 330.708 565.302C330.232 565.134 329.476 565.05 328.44 565.05V578.784C328.44 580.492 329.014 581.458 330.162 581.682V582.606L325.92 585C325.304 584.748 324.73 584.342 324.198 583.782C323.666 583.194 323.4 582.648 323.4 582.144ZM346.487 556.692V561.69H348.629L348.209 563.748H346.487V578.784C346.487 580.492 347.061 581.458 348.209 581.682V582.606L343.967 585C343.351 584.748 342.777 584.342 342.245 583.782C341.713 583.194 341.447 582.648 341.447 582.144V563.79H339.725L340.145 562.026C340.985 562.026 341.993 561.466 343.169 560.346C344.373 559.198 345.087 557.98 345.311 556.692H346.487Z" fill="white"/>
<path d="M407.792 135.917L462.159 190.284L407.792 244.65" stroke="white" stroke-width="9.1875" stroke-linecap="round" stroke-linejoin="round"/>
<path d="M448.567 190.284L198.82 190.284C148.904 190.284 108.775 232.189 108.775 282.028L108.775 299.017" stroke="white" stroke-width="9.1875" stroke-linecap="round" stroke-linejoin="round"/>
<defs>
<filter id="filter0_d" x="165" y="210" width="210" height="210" filterUnits="userSpaceOnUse" color-interpolation-filters="sRGB">
<feFlood flood-opacity="0" result="BackgroundImageFix"/>
<feColorMatrix in="SourceAlpha" type="matrix" values="0 0 0 0 0 0 0 0 0 0 0 0 0 0 0 0 0 0 127 0"/>
<feOffset dx="2" dy="4"/>
<feGaussianBlur stdDeviation="2.5"/>
<feColorMatrix type="matrix" values="0 0 0 0 1 0 0 0 0 1 0 0 0 0 1 0 0 0 1 0"/>
<feBlend mode="normal" in2="BackgroundImageFix" result="effect1_dropShadow"/>
<feBlend mode="normal" in="SourceGraphic" in2="effect1_dropShadow" result="shape"/>
</filter>
<filter id="filter1_d" x="191" y="237" width="155" height="155" filterUnits="userSpaceOnUse" color-interpolation-filters="sRGB">
<feFlood flood-opacity="0" result="BackgroundImageFix"/>
<feColorMatrix in="SourceAlpha" type="matrix" values="0 0 0 0 0 0 0 0 0 0 0 0 0 0 0 0 0 0 127 0"/>
<feOffset dy="4"/>
<feGaussianBlur stdDeviation="2"/>
<feColorMatrix type="matrix" values="0 0 0 0 0 0 0 0 0 0 0 0 0 0 0 0 0 0 0.25 0"/>
<feBlend mode="normal" in2="BackgroundImageFix" result="effect1_dropShadow"/>
<feBlend mode="normal" in="SourceGraphic" in2="effect1_dropShadow" result="shape"/>
</filter>
</defs>
</svg>