<svg width="262" height="62" viewBox="0 0 362 162" fill="none" xmlns="http://www.w3.org/2000/svg">
<g clip-path="url(#clip0)">
<path d="M66.8242 53.5113L80.2029 57.0305C80.6573 57.1365 81.0638 57.3895 81.3594 57.7499C81.655 58.1104 81.823 58.5582 81.8373 59.0238C81.8373 60.1559 80.8291 61.091 79.5891 61.091H70.8129C69.8672 61.0883 68.9308 60.9045 68.0544 60.5496C66.7626 60.0082 65.2736 60.1312 64.2826 61.0418L59.5987 65.3484C59.3821 65.5377 59.1951 65.7584 59.0441 66.003C58.8507 66.3197 58.722 66.6714 58.6654 67.0379C58.6088 67.4045 58.6255 67.7785 58.7144 68.1386C58.8033 68.4987 58.9627 68.8376 59.1835 69.1359C59.4042 69.4342 59.6819 69.6859 60.0006 69.8766C62.5945 71.4306 65.4988 72.3967 68.508 72.7066V77.0625C68.508 79.2281 70.4382 81 72.79 81H77.0721C79.4264 81 81.3566 79.2281 81.3566 77.0625V72.7312C89.4745 71.8453 95.6153 65.1023 94.5455 57.2273C93.7689 51.5672 89.0086 47.0637 83.0675 45.4887L69.6888 41.9695C69.2344 41.8635 68.8279 41.6105 68.5323 41.2501C68.2368 40.8896 68.0687 40.4418 68.0544 39.9762C68.0544 38.8441 69.0626 37.909 70.3026 37.909H79.0788C80.0278 37.9105 80.9677 38.0943 81.8472 38.4504C83.1365 38.9918 84.6279 38.8687 85.6189 37.9582L90.3028 33.6516C90.5123 33.4663 90.6926 33.2506 90.8378 33.0117C91.0328 32.6952 91.1631 32.3432 91.221 31.9761C91.279 31.609 91.2635 31.2341 91.1755 30.873C91.0875 30.5119 90.9287 30.1718 90.7082 29.8724C90.4878 29.5729 90.2101 29.3201 89.8912 29.1284C87.2963 27.5744 84.3913 26.6082 81.3813 26.2983V21.9375C81.3813 19.7719 79.4535 18 77.0992 18H72.8171C70.4629 18 68.5351 19.7719 68.5351 21.9375V26.2687C60.427 27.1547 54.2739 33.8977 55.3438 41.7727C56.1179 47.4328 60.893 51.9363 66.8242 53.5113ZM139.353 98.7434C136.444 96.1102 131.908 96.2824 128.851 98.7434L106.073 116.93C103.277 119.169 99.7966 120.385 96.2119 120.375H67.056C66.0099 120.375 65.0066 119.96 64.2669 119.222C63.5272 118.483 63.1116 117.482 63.1116 116.438C63.1116 115.393 63.5272 114.392 64.2669 113.653C65.0066 112.915 66.0099 112.5 67.056 112.5H86.356C90.2757 112.5 93.9267 109.818 94.5528 105.954C94.6301 105.51 94.668 105.061 94.6662 104.61C94.6623 102.524 93.8295 100.525 92.3505 99.0513C90.8715 97.5777 88.8672 96.75 86.7776 96.75H47.3343C40.6823 96.7517 34.2329 99.036 29.0672 103.22L17.604 112.5H3.94677C2.90067 112.5 1.89741 112.915 1.15771 113.653C0.418003 114.392 0.00244141 115.393 0.00244141 116.438L0.00244141 140.062C0.00244141 141.107 0.418003 142.108 1.15771 142.847C1.89741 143.585 2.90067 144 3.94677 144H91.8978C95.4813 144.003 98.959 142.788 101.759 140.555L139.04 110.777C139.937 110.061 140.666 109.158 141.177 108.132C141.688 107.105 141.968 105.98 141.999 104.834C142.029 103.688 141.808 102.549 141.351 101.497C140.895 100.445 140.214 99.5053 139.355 98.7434H139.353Z" fill="white"/>
</g>
<path d="M196.948 12.558C200.028 10.682 201.792 9.744 202.24 9.744C202.688 9.744 203.388 10.318 204.34 11.466C205.32 12.614 205.81 13.65 205.81 14.574V27.636C205.81 27.832 204.69 28.378 202.45 29.274C200.238 30.17 198.404 30.842 196.948 31.29V35.532C196.948 36.568 197.06 37.31 197.284 37.758C197.508 38.206 197.97 38.43 198.67 38.43V39.732L190.06 43.344L189.388 42C190.004 42 190.592 41.636 191.152 40.908C191.656 40.208 191.908 39.144 191.908 37.716V15.96C191.908 14.252 191.334 13.286 190.186 13.062V12.138L194.428 9.744C194.988 9.968 195.548 10.374 196.108 10.962C196.668 11.55 196.948 12.082 196.948 12.558ZM198.586 13.776C198.082 13.776 197.536 13.986 196.948 14.406V29.316C197.676 29.316 198.488 29.092 199.384 28.644C200.28 28.168 200.728 27.678 200.728 27.174V16.884C200.728 14.812 200.014 13.776 198.586 13.776ZM214.625 20.916V35.784C214.625 37.492 215.199 38.458 216.347 38.682V39.606L212.105 42C211.489 41.748 210.915 41.342 210.383 40.782C209.851 40.194 209.585 39.648 209.585 39.144V24.276C209.585 22.568 209.011 21.602 207.863 21.378V20.454L212.105 18.06C212.721 18.312 213.295 18.732 213.827 19.32C214.359 19.88 214.625 20.412 214.625 20.916ZM208.955 12.81V10.248C208.955 10.164 209.529 9.912 210.677 9.492C211.853 9.044 212.525 8.82 212.693 8.82C212.889 8.82 213.155 9.058 213.491 9.534C213.855 10.01 214.037 10.5 214.037 11.004V14.07C214.037 14.154 213.477 14.42 212.357 14.868C211.237 15.288 210.551 15.498 210.299 15.498C210.047 15.498 209.753 15.26 209.417 14.784C209.109 14.28 208.955 13.622 208.955 12.81ZM224.61 22.134C224.33 22.134 224.078 22.274 223.854 22.554V34.146C223.854 36.302 224.778 37.632 226.626 38.136C227.578 38.36 228.712 38.472 230.028 38.472V39.69C225.436 41.23 222.986 42 222.678 42C221.838 42 220.984 41.412 220.116 40.236C219.248 39.032 218.814 37.632 218.814 36.036V21.924C218.814 21.728 220.41 21.042 223.602 19.866C226.822 18.662 228.67 18.06 229.146 18.06C229.314 18.06 229.51 18.466 229.734 19.278C229.958 20.09 230.21 21.07 230.49 22.218C230.798 23.366 231.106 24.22 231.414 24.78C231.75 25.312 232.366 25.578 233.262 25.578V26.418C232.646 26.698 231.596 27.202 230.112 27.93C228.656 28.63 227.872 28.98 227.76 28.98C227.34 28.98 226.808 27.846 226.164 25.578C225.52 23.282 225.002 22.134 224.61 22.134ZM240.834 35.784C240.834 37.492 241.408 38.458 242.556 38.682V39.606L238.314 42C237.698 41.748 237.124 41.342 236.592 40.782C236.06 40.194 235.794 39.648 235.794 39.144V18.354C235.794 17.598 235.668 17.066 235.416 16.758C235.164 16.422 234.73 16.254 234.114 16.254V15.078C237.754 13.174 241.002 11.382 243.858 9.702L244.53 11.046C244.25 11.186 243.858 11.466 243.354 11.886C242.85 12.278 242.43 12.684 242.094 13.104C241.254 14.168 240.834 15.372 240.834 16.716V20.58C243.438 18.9 244.978 18.06 245.454 18.06C246.238 18.06 247.106 18.578 248.058 19.614C249.01 20.622 249.486 21.756 249.486 23.016V27.594C249.486 27.902 248.03 28.616 245.118 29.736C246.882 34.412 248.604 37.1 250.284 37.8C250.816 38.052 251.404 38.206 252.048 38.262V39.48C249.444 41.16 247.806 42 247.134 42C246.238 42 245.09 40.642 243.69 37.926C242.318 35.182 241.366 32.9 240.834 31.08V35.784ZM240.834 29.022C241.394 29.022 242.402 28.672 243.858 27.972L244.614 27.594V25.704C244.614 23.324 243.802 22.134 242.178 22.134L240.834 22.344V29.022ZM266.879 35.448C266.879 36.176 267.089 36.778 267.509 37.254C267.957 37.702 268.447 37.926 268.979 37.926C269.511 37.926 270.071 37.716 270.659 37.296V24.234C270.659 22.526 270.085 21.56 268.937 21.336V20.412L273.179 18.018C273.795 18.27 274.369 18.69 274.901 19.278C275.433 19.838 275.699 20.37 275.699 20.874V35.112C275.699 36.036 275.895 36.834 276.287 37.506C276.679 38.178 277.169 38.514 277.757 38.514V39.438C277.561 39.466 276.035 40.32 273.179 42C272.535 41.72 271.947 41.314 271.415 40.782C270.911 40.222 270.659 39.69 270.659 39.186L265.409 42C265.325 41.944 265.199 41.874 265.031 41.79C264.863 41.678 264.569 41.468 264.149 41.16C263.757 40.824 263.407 40.474 263.099 40.11C262.259 39.186 261.839 38.136 261.839 36.96V24.234C261.839 22.694 261.153 21.784 259.781 21.504V20.58L264.359 18.018C264.975 18.27 265.549 18.69 266.081 19.278C266.613 19.838 266.879 20.37 266.879 20.874V35.448ZM286.606 21.966C286.074 21.966 285.528 22.19 284.968 22.638V39.312C285.696 39.312 286.508 39.074 287.404 38.598C288.3 38.122 288.748 37.618 288.748 37.086V25.074C288.748 23.002 288.034 21.966 286.606 21.966ZM279.886 46.62V24.528C279.886 23.884 279.704 23.254 279.34 22.638C279.004 22.022 278.514 21.672 277.87 21.588V20.664C278.066 20.636 279.592 19.782 282.448 18.102C283.092 18.382 283.666 18.802 284.17 19.362C284.702 19.894 284.968 20.398 284.968 20.874C287.964 19.026 289.714 18.102 290.218 18.102C290.414 18.102 290.778 18.326 291.31 18.774C291.87 19.194 292.416 19.824 292.948 20.664C293.508 21.476 293.788 22.316 293.788 23.184V38.136C293.788 38.332 292.542 38.92 290.05 39.9C287.586 40.852 285.878 41.454 284.926 41.706V43.26C284.926 44.968 285.5 45.934 286.648 46.158V47.082L282.406 49.476C281.79 49.224 281.216 48.804 280.684 48.216C280.152 47.656 279.886 47.124 279.886 46.62ZM318.951 23.604V35.49C318.951 36.526 319.119 37.254 319.455 37.674C319.791 38.066 320.309 38.346 321.009 38.514V39.438L316.431 42C315.815 41.748 315.241 41.342 314.709 40.782C314.177 40.194 313.911 39.662 313.911 39.186L308.661 42C308.577 41.944 308.451 41.874 308.283 41.79C308.115 41.678 307.821 41.468 307.401 41.16C307.009 40.824 306.659 40.474 306.351 40.11C305.511 39.186 305.091 38.136 305.091 36.96V30.072C305.091 29.624 305.819 29.05 307.275 28.35C308.731 27.65 310.187 27.076 311.643 26.628L313.869 25.914C313.869 24.318 313.449 23.212 312.609 22.596C311.769 21.952 310.145 21.63 307.737 21.63V20.37C312.077 18.83 314.513 18.06 315.045 18.06C315.969 18.06 316.851 18.662 317.691 19.866C318.531 21.07 318.951 22.316 318.951 23.604ZM310.131 35.448C310.131 36.176 310.341 36.778 310.761 37.254C311.209 37.702 311.699 37.926 312.231 37.926C312.763 37.926 313.323 37.716 313.911 37.296V27.804C313.211 28.056 312.679 28.266 312.315 28.434C311.979 28.602 311.615 28.868 311.223 29.232C310.495 29.904 310.131 31.066 310.131 32.718V35.448ZM323.158 39.144V24.906C323.158 23.982 322.962 23.184 322.57 22.512C322.178 21.84 321.688 21.504 321.1 21.504V20.58C321.296 20.552 322.822 19.698 325.678 18.018C325.874 18.074 326.112 18.158 326.392 18.27C326.672 18.354 327.036 18.62 327.484 19.068C327.96 19.516 328.198 20.034 328.198 20.622C328.366 20.538 328.842 20.272 329.626 19.824C331.698 18.648 332.93 18.06 333.322 18.06C334.218 18.06 335.058 18.648 335.842 19.824C336.626 21 337.018 22.078 337.018 23.058V35.784C337.018 37.324 337.704 38.234 339.076 38.514V39.438L334.498 42C333.882 41.748 333.308 41.342 332.776 40.782C332.244 40.194 331.978 39.648 331.978 39.144V26.964C331.978 25.396 331.796 24.206 331.432 23.394C331.096 22.554 330.48 22.134 329.584 22.134L328.198 22.386V35.784C328.198 37.492 328.772 38.458 329.92 38.682V39.606L325.678 42C325.062 41.748 324.488 41.342 323.956 40.782C323.424 40.194 323.158 39.648 323.158 39.144ZM355.106 20.874V37.548C355.106 38.612 354.63 40.124 353.678 42.084C352.726 44.072 351.718 45.808 350.654 47.292C349.59 48.804 348.862 49.56 348.47 49.56C347.77 49.56 346.832 49.35 345.656 48.93C344.48 48.51 343.472 48.09 342.632 47.67L341.414 47.04V45.78H342.842C343.934 45.78 345.18 45.15 346.58 43.89C347.98 42.658 349.142 41.006 350.066 38.934C346.902 40.418 345.082 41.16 344.606 41.16C343.738 41.16 342.954 40.614 342.254 39.522C341.582 38.402 341.246 37.156 341.246 35.784V24.234C341.246 22.694 340.56 21.784 339.188 21.504V20.58L343.766 18.018C344.382 18.27 344.956 18.69 345.488 19.278C346.02 19.838 346.286 20.37 346.286 20.874V32.256C346.286 34.216 346.594 35.532 347.21 36.204C347.826 36.848 348.778 37.17 350.066 37.17V24.234C350.066 22.526 349.492 21.56 348.344 21.336V20.412L352.586 18.018C353.202 18.27 353.776 18.69 354.308 19.278C354.84 19.838 355.106 20.37 355.106 20.874ZM192.354 74.916V89.784C192.354 91.492 192.928 92.458 194.076 92.682V93.606L189.834 96C189.218 95.748 188.644 95.342 188.112 94.782C187.58 94.194 187.314 93.648 187.314 93.144V78.276C187.314 76.568 186.74 75.602 185.592 75.378V74.454L189.834 72.06C190.45 72.312 191.024 72.732 191.556 73.32C192.088 73.88 192.354 74.412 192.354 74.916ZM186.684 66.81V64.248C186.684 64.164 187.258 63.912 188.406 63.492C189.582 63.044 190.254 62.82 190.422 62.82C190.618 62.82 190.884 63.058 191.22 63.534C191.584 64.01 191.766 64.5 191.766 65.004V68.07C191.766 68.154 191.206 68.42 190.086 68.868C188.966 69.288 188.28 69.498 188.028 69.498C187.776 69.498 187.482 69.26 187.146 68.784C186.838 68.28 186.684 67.622 186.684 66.81ZM201.582 67.692V72.69H203.724L203.304 74.748H201.582V89.784C201.582 91.492 202.156 92.458 203.304 92.682V93.606L199.062 96C198.446 95.748 197.872 95.342 197.34 94.782C196.808 94.194 196.542 93.648 196.542 93.144V74.79H194.82L195.24 73.026C196.08 73.026 197.088 72.466 198.264 71.346C199.468 70.198 200.182 68.98 200.406 67.692H201.582ZM216.061 72.06C216.201 72.06 216.551 72.284 217.111 72.732C217.671 73.152 218.231 73.754 218.791 74.538C219.351 75.294 219.631 76.036 219.631 76.764V83.82C219.631 84.324 218.889 84.94 217.405 85.668C215.921 86.396 214.479 86.998 213.079 87.474C211.707 87.922 210.965 88.146 210.853 88.146C210.853 90.302 211.791 91.632 213.667 92.136C214.591 92.36 215.697 92.472 216.985 92.472V93.69C212.393 95.23 209.943 96 209.635 96C208.795 96 207.941 95.412 207.073 94.236C206.205 93.032 205.771 91.632 205.771 90.036V75.924C205.771 75.728 207.367 75.042 210.559 73.866C213.751 72.662 215.585 72.06 216.061 72.06ZM214.591 78.738C214.591 77.954 214.409 77.296 214.045 76.764C213.681 76.204 213.219 75.924 212.659 75.924C212.099 75.924 211.483 76.134 210.811 76.554V86.256C213.331 85.556 214.591 84.044 214.591 81.72V78.738ZM223.613 93.144V78.906C223.613 77.982 223.417 77.184 223.025 76.512C222.633 75.84 222.143 75.504 221.555 75.504V74.58C221.751 74.552 223.277 73.698 226.133 72.018C226.329 72.074 226.567 72.158 226.847 72.27C227.127 72.354 227.491 72.62 227.939 73.068C228.415 73.516 228.653 74.034 228.653 74.622C228.821 74.538 229.297 74.272 230.081 73.824C232.153 72.648 233.427 72.06 233.903 72.06C234.407 72.06 234.953 72.312 235.541 72.816C236.157 73.32 236.619 73.922 236.927 74.622C236.983 74.594 237.557 74.3 238.649 73.74C240.833 72.62 242.149 72.06 242.597 72.06C243.493 72.06 244.333 72.648 245.117 73.824C245.901 75 246.293 76.078 246.293 77.058V89.784C246.293 91.324 246.979 92.234 248.351 92.514V93.438L243.773 96C243.157 95.748 242.583 95.342 242.051 94.782C241.519 94.194 241.253 93.648 241.253 93.144V80.754C241.253 78.934 241.015 77.73 240.539 77.142C240.063 76.526 239.447 76.218 238.691 76.218L237.473 76.47V89.784C237.473 91.324 238.159 92.234 239.531 92.514V93.438L234.953 96C234.337 95.748 233.763 95.342 233.231 94.782C232.699 94.194 232.433 93.648 232.433 93.144V80.964C232.433 77.744 231.663 76.134 230.123 76.134L228.653 76.386V89.784C228.653 91.492 229.227 92.458 230.375 92.682V93.606L226.133 96C225.517 95.748 224.943 95.342 224.411 94.782C223.879 94.194 223.613 93.648 223.613 93.144ZM252.41 86.802C251.71 86.802 251.108 86.27 250.604 85.206C250.1 84.142 249.848 82.84 249.848 81.3V76.764C249.848 76.232 251.318 75.322 254.258 74.034C257.198 72.718 258.892 72.06 259.34 72.06C259.592 72.06 259.816 72.214 260.012 72.522C260.208 72.802 260.362 73.04 260.474 73.236C260.586 73.404 260.754 73.712 260.978 74.16C261.23 74.58 261.44 74.93 261.608 75.21C261.972 75.882 262.434 76.218 262.994 76.218V77.058C262.546 77.254 261.958 77.548 261.23 77.94C259.438 78.92 258.472 79.41 258.332 79.41C257.912 79.41 257.45 78.724 256.946 77.352C256.47 75.98 256.036 75.294 255.644 75.294C255.14 75.294 254.888 75.714 254.888 76.554V81.72C254.888 82.84 255.14 83.4 255.644 83.4C255.756 83.4 256.624 83.036 258.248 82.308C259.872 81.58 260.852 81.216 261.188 81.216C261.86 81.216 262.448 81.762 262.952 82.854C263.484 83.918 263.75 85.29 263.75 86.97V91.716C263.75 92.248 262.14 93.172 258.92 94.488C255.728 95.776 253.894 96.42 253.418 96.42C253.222 96.42 253.026 96.252 252.83 95.916C252.662 95.552 252.41 95.006 252.074 94.278C251.766 93.55 251.458 92.934 251.15 92.43C250.786 91.758 250.324 91.422 249.764 91.422V90.582C250.212 90.386 250.814 90.092 251.57 89.7C253.334 88.72 254.286 88.23 254.426 88.23C254.846 88.23 255.364 89.056 255.98 90.708C256.624 92.36 257.142 93.186 257.534 93.186C257.814 93.186 258.08 93.074 258.332 92.85C258.584 92.626 258.71 92.318 258.71 91.926V86.676C258.71 85.416 258.36 84.786 257.66 84.786C257.436 84.786 256.554 85.122 255.014 85.794C253.474 86.466 252.606 86.802 252.41 86.802ZM280.537 74.916V89.784C280.537 91.492 281.111 92.458 282.259 92.682V93.606L278.017 96C277.401 95.748 276.827 95.342 276.295 94.782C275.763 94.194 275.497 93.648 275.497 93.144V78.276C275.497 76.568 274.923 75.602 273.775 75.378V74.454L278.017 72.06C278.633 72.312 279.207 72.732 279.739 73.32C280.271 73.88 280.537 74.412 280.537 74.916ZM274.867 66.81V64.248C274.867 64.164 275.441 63.912 276.589 63.492C277.765 63.044 278.437 62.82 278.605 62.82C278.801 62.82 279.067 63.058 279.403 63.534C279.767 64.01 279.949 64.5 279.949 65.004V68.07C279.949 68.154 279.389 68.42 278.269 68.868C277.149 69.288 276.463 69.498 276.211 69.498C275.959 69.498 275.665 69.26 275.329 68.784C275.021 68.28 274.867 67.622 274.867 66.81ZM284.726 93.144V78.906C284.726 77.982 284.53 77.184 284.138 76.512C283.746 75.84 283.256 75.504 282.668 75.504V74.58C282.864 74.552 284.39 73.698 287.246 72.018C287.442 72.074 287.68 72.158 287.96 72.27C288.24 72.354 288.604 72.62 289.052 73.068C289.528 73.516 289.766 74.034 289.766 74.622C289.934 74.538 290.41 74.272 291.194 73.824C293.266 72.648 294.498 72.06 294.89 72.06C295.786 72.06 296.626 72.648 297.41 73.824C298.194 75 298.586 76.078 298.586 77.058V89.784C298.586 91.324 299.272 92.234 300.644 92.514V93.438L296.066 96C295.45 95.748 294.876 95.342 294.344 94.782C293.812 94.194 293.546 93.648 293.546 93.144V80.964C293.546 79.396 293.364 78.206 293 77.394C292.664 76.554 292.048 76.134 291.152 76.134L289.766 76.386V89.784C289.766 91.492 290.34 92.458 291.488 92.682V93.606L287.246 96C286.63 95.748 286.056 95.342 285.524 94.782C284.992 94.194 284.726 93.648 284.726 93.144ZM315.811 67.692V72.69H317.953L317.533 74.748H315.811V89.784C315.811 91.492 316.385 92.458 317.533 92.682V93.606L313.291 96C312.675 95.748 312.101 95.342 311.569 94.782C311.037 94.194 310.771 93.648 310.771 93.144V74.79H309.049L309.469 73.026C310.309 73.026 311.317 72.466 312.493 71.346C313.697 70.198 314.411 68.98 314.635 67.692H315.811ZM319.999 93.144V72.354C319.999 71.598 319.873 71.066 319.621 70.758C319.369 70.422 318.935 70.254 318.319 70.254V69.078C321.959 67.174 325.207 65.382 328.063 63.702L328.735 65.046C328.455 65.186 328.063 65.466 327.559 65.886C327.055 66.278 326.635 66.684 326.299 67.104C325.459 68.168 325.039 69.372 325.039 70.716V74.286C327.923 72.802 329.603 72.06 330.079 72.06C330.975 72.06 331.829 72.62 332.641 73.74C333.453 74.86 333.859 76.092 333.859 77.436V89.784C333.859 91.324 334.545 92.234 335.917 92.514V93.438L331.339 96C330.723 95.748 330.149 95.342 329.617 94.782C329.085 94.194 328.819 93.648 328.819 93.144V80.964C328.819 78.22 328.315 76.666 327.307 76.302C326.831 76.134 326.075 76.05 325.039 76.05V89.784C325.039 91.492 325.613 92.458 326.761 92.682V93.606L322.519 96C321.903 95.748 321.329 95.342 320.797 94.782C320.265 94.194 319.999 93.648 319.999 93.144ZM348.336 72.06C348.476 72.06 348.826 72.284 349.386 72.732C349.946 73.152 350.506 73.754 351.066 74.538C351.626 75.294 351.906 76.036 351.906 76.764V83.82C351.906 84.324 351.164 84.94 349.68 85.668C348.196 86.396 346.754 86.998 345.354 87.474C343.982 87.922 343.24 88.146 343.128 88.146C343.128 90.302 344.066 91.632 345.942 92.136C346.866 92.36 347.972 92.472 349.26 92.472V93.69C344.668 95.23 342.218 96 341.91 96C341.07 96 340.216 95.412 339.348 94.236C338.48 93.032 338.046 91.632 338.046 90.036V75.924C338.046 75.728 339.642 75.042 342.834 73.866C346.026 72.662 347.86 72.06 348.336 72.06ZM346.866 78.738C346.866 77.954 346.684 77.296 346.32 76.764C345.956 76.204 345.494 75.924 344.934 75.924C344.374 75.924 343.758 76.134 343.086 76.554V86.256C345.606 85.556 346.866 84.044 346.866 81.72V78.738ZM255.541 131.604V143.49C255.541 144.526 255.709 145.254 256.045 145.674C256.381 146.066 256.899 146.346 257.599 146.514V147.438L253.021 150C252.405 149.748 251.831 149.342 251.299 148.782C250.767 148.194 250.501 147.662 250.501 147.186L245.251 150C245.167 149.944 245.041 149.874 244.873 149.79C244.705 149.678 244.411 149.468 243.991 149.16C243.599 148.824 243.249 148.474 242.941 148.11C242.101 147.186 241.681 146.136 241.681 144.96V138.072C241.681 137.624 242.409 137.05 243.865 136.35C245.321 135.65 246.777 135.076 248.233 134.628L250.459 133.914C250.459 132.318 250.039 131.212 249.199 130.596C248.359 129.952 246.735 129.63 244.327 129.63V128.37C248.667 126.83 251.103 126.06 251.635 126.06C252.559 126.06 253.441 126.662 254.281 127.866C255.121 129.07 255.541 130.316 255.541 131.604ZM246.721 143.448C246.721 144.176 246.931 144.778 247.351 145.254C247.799 145.702 248.289 145.926 248.821 145.926C249.353 145.926 249.913 145.716 250.501 145.296V135.804C249.801 136.056 249.269 136.266 248.905 136.434C248.569 136.602 248.205 136.868 247.813 137.232C247.085 137.904 246.721 139.066 246.721 140.718V143.448ZM257.689 128.58L262.309 126.06C262.505 126.116 262.729 126.2 262.981 126.312C263.261 126.396 263.625 126.662 264.073 127.11C264.549 127.558 264.787 128.062 264.787 128.622C264.927 128.566 265.585 128.132 266.761 127.32C267.965 126.48 268.735 126.06 269.071 126.06C269.967 126.06 270.807 126.648 271.591 127.824C272.375 129 272.767 130.078 272.767 131.058V133.116L268.441 135.552L267.727 134.964C267.727 132.612 267.503 131.268 267.055 130.932C266.551 130.568 265.795 130.386 264.787 130.386V143.784C264.787 145.492 265.361 146.458 266.509 146.682V147.606L262.267 150C261.651 149.748 261.077 149.342 260.545 148.782C260.013 148.194 259.747 147.648 259.747 147.144V133.2C259.747 131.968 259.523 131.044 259.075 130.428C258.655 129.812 258.193 129.504 257.689 129.504V128.58ZM285.993 126.06C286.133 126.06 286.483 126.284 287.043 126.732C287.603 127.152 288.163 127.754 288.723 128.538C289.283 129.294 289.563 130.036 289.563 130.764V137.82C289.563 138.324 288.821 138.94 287.337 139.668C285.853 140.396 284.411 140.998 283.011 141.474C281.639 141.922 280.897 142.146 280.785 142.146C280.785 144.302 281.723 145.632 283.599 146.136C284.523 146.36 285.629 146.472 286.917 146.472V147.69C282.325 149.23 279.875 150 279.567 150C278.727 150 277.873 149.412 277.005 148.236C276.137 147.032 275.703 145.632 275.703 144.036V129.924C275.703 129.728 277.299 129.042 280.491 127.866C283.683 126.662 285.517 126.06 285.993 126.06ZM284.523 132.738C284.523 131.954 284.341 131.296 283.977 130.764C283.613 130.204 283.151 129.924 282.591 129.924C282.031 129.924 281.415 130.134 280.743 130.554V140.256C283.263 139.556 284.523 138.044 284.523 135.72V132.738ZM304.473 131.604V143.49C304.473 144.526 304.641 145.254 304.977 145.674C305.313 146.066 305.831 146.346 306.531 146.514V147.438L301.953 150C301.337 149.748 300.763 149.342 300.231 148.782C299.699 148.194 299.433 147.662 299.433 147.186L294.183 150C294.099 149.944 293.973 149.874 293.805 149.79C293.637 149.678 293.343 149.468 292.923 149.16C292.531 148.824 292.181 148.474 291.873 148.11C291.033 147.186 290.613 146.136 290.613 144.96V138.072C290.613 137.624 291.341 137.05 292.797 136.35C294.253 135.65 295.709 135.076 297.165 134.628L299.391 133.914C299.391 132.318 298.971 131.212 298.131 130.596C297.291 129.952 295.667 129.63 293.259 129.63V128.37C297.599 126.83 300.035 126.06 300.567 126.06C301.491 126.06 302.373 126.662 303.213 127.866C304.053 129.07 304.473 130.316 304.473 131.604ZM295.653 143.448C295.653 144.176 295.863 144.778 296.283 145.254C296.731 145.702 297.221 145.926 297.753 145.926C298.285 145.926 298.845 145.716 299.433 145.296V135.804C298.733 136.056 298.201 136.266 297.837 136.434C297.501 136.602 297.137 136.868 296.745 137.232C296.017 137.904 295.653 139.066 295.653 140.718V143.448Z" fill="white"/>
<defs>
<clipPath id="clip0">
<rect y="18" width="142" height="126" fill="white"/>
</clipPath>
</defs>
</svg>
