<svg width="70" height="201" viewBox="0 0 210 551" fill="none" xmlns="http://www.w3.org/2000/svg">
<g filter="url(#filter0_d)">
<rect x="3" y="165" width="200" height="200" rx="48" fill="white"/>
<rect x="4" y="166" width="198" height="198" rx="47" stroke="black" stroke-width="2"/>
</g>
<path d="M103.5 195.594C65.4454 195.594 34.5938 226.443 34.5938 264.5C34.5938 302.557 65.4454 333.406 103.5 333.406C141.555 333.406 172.406 302.555 172.406 264.5C172.406 226.443 141.555 195.594 103.5 195.594ZM124.064 293.62C119.358 297.644 112.71 299.654 104.118 299.654C95.3438 299.654 88.4394 297.671 83.4138 293.709C78.386 289.743 75.8732 284.297 75.8732 277.362H89.1652C89.597 280.408 90.4446 282.682 91.7033 284.191C94.0139 286.936 97.9668 288.305 103.569 288.305C106.925 288.305 109.646 287.946 111.739 287.218C115.712 285.831 117.697 283.256 117.697 279.489C117.697 277.291 116.723 275.587 114.78 274.379C112.832 273.203 109.747 272.162 105.526 271.262L98.3114 269.679C91.2186 268.108 86.3469 266.409 83.6963 264.571C79.2014 261.496 76.9573 256.688 76.9573 250.147C76.9573 244.177 79.1554 239.221 83.547 235.272C87.9387 231.322 94.3952 229.349 102.91 229.349C110.021 229.349 116.08 231.209 121.106 234.932C126.122 238.656 128.754 244.06 129.002 251.144H115.616C115.37 247.136 113.579 244.288 110.241 242.597C108.016 241.483 105.248 240.923 101.943 240.923C98.2631 240.923 95.33 241.646 93.1365 243.093C90.943 244.54 89.8428 246.559 89.8428 249.152C89.8428 251.534 90.9246 253.312 93.0906 254.486C94.4779 255.271 97.4294 256.19 101.945 257.244L113.641 260.003C118.763 261.206 122.608 262.821 125.166 264.838C129.138 267.973 131.125 272.511 131.125 278.447C131.125 284.536 128.775 289.596 124.064 293.62Z" fill="black"/>
<path d="M164.75 91.875L146.375 67.375L128 91.875H139.674C137.004 106.998 124.742 119.26 109.625 121.924V79.625H121.875V67.375H109.625V57.183C119.076 54.3716 126.248 45.4046 126.248 35.0044C126.248 22.4543 116.044 12.25 103.5 12.25C90.956 12.25 80.7518 22.4543 80.7518 35.0044C80.7518 45.4046 87.9241 54.3716 97.375 57.183V67.375H85.125V79.625H97.375V121.924C82.2524 119.26 69.9901 106.998 67.3257 91.875H79L60.625 67.375L42.25 91.875H54.9471C58.077 115.671 79.0122 134.75 103.5 134.75C127.988 134.75 148.923 115.671 152.053 91.875H164.75ZM93.0018 35.0044C93.0018 29.2163 97.7119 24.5 103.5 24.5C109.288 24.5 113.998 29.2163 113.998 35.0044C113.998 40.8293 109.092 45.9375 103.5 45.9375C97.9079 45.9375 93.0018 40.8293 93.0018 35.0044Z" fill="white"/>
<path d="M27.3116 403.49V427.094C27.3116 427.318 25.7716 428.032 22.6916 429.236C19.6396 430.412 17.7636 431 17.0636 431C16.3916 431 15.6076 430.398 14.7116 429.194C13.8436 427.99 13.4096 426.548 13.4096 424.868V404.708C13.4096 403.196 12.8356 402.314 11.6876 402.062V401.138L15.9296 398.744C16.5456 398.996 17.1196 399.416 17.6516 400.004C18.1836 400.564 18.4496 401.096 18.4496 401.6L23.6576 398.66C24.1616 398.66 24.8896 399.234 25.8416 400.382C26.8216 401.53 27.3116 402.566 27.3116 403.49ZM20.5916 427.136C21.1236 427.136 21.6696 426.912 22.2296 426.464V406.64C22.2296 404.652 21.5156 403.658 20.0876 403.658C19.5276 403.658 18.9816 403.868 18.4496 404.288V424.028C18.4496 426.1 19.1636 427.136 20.5916 427.136ZM29.4395 409.58L34.0595 407.06C34.2555 407.116 34.4795 407.2 34.7315 407.312C35.0115 407.396 35.3755 407.662 35.8235 408.11C36.2995 408.558 36.5375 409.062 36.5375 409.622C36.6775 409.566 37.3355 409.132 38.5115 408.32C39.7155 407.48 40.4855 407.06 40.8215 407.06C41.7175 407.06 42.5575 407.648 43.3415 408.824C44.1255 410 44.5175 411.078 44.5175 412.058V414.116L40.1915 416.552L39.4775 415.964C39.4775 413.612 39.2535 412.268 38.8055 411.932C38.3015 411.568 37.5455 411.386 36.5375 411.386V424.784C36.5375 426.492 37.1115 427.458 38.2595 427.682V428.606L34.0175 431C33.4015 430.748 32.8275 430.342 32.2955 429.782C31.7635 429.194 31.4975 428.648 31.4975 428.144V414.2C31.4975 412.968 31.2735 412.044 30.8255 411.428C30.4055 410.812 29.9435 410.504 29.4395 410.504V409.58ZM47.4525 424.868V410.924C47.4525 410.728 49.0485 410.042 52.2405 408.866C55.4325 407.662 57.2665 407.06 57.7425 407.06C58.2185 407.06 58.9325 407.634 59.8845 408.782C60.8645 409.93 61.3545 410.966 61.3545 411.89V427.094C61.3545 427.318 59.8145 428.032 56.7345 429.236C53.6825 430.412 51.8065 431 51.1065 431C50.4345 431 49.6505 430.398 48.7545 429.194C47.8865 427.99 47.4525 426.548 47.4525 424.868ZM54.6345 427.136C55.1665 427.136 55.7125 426.912 56.2725 426.464V414.074C56.2725 412.002 55.5585 410.966 54.1305 410.966C53.5705 410.966 53.0245 411.176 52.4925 411.596V424.028C52.4925 426.1 53.2065 427.136 54.6345 427.136ZM72.2604 410.966C71.7284 410.966 71.1824 411.19 70.6224 411.638V428.312C71.3504 428.312 72.1624 428.074 73.0584 427.598C73.9544 427.122 74.4024 426.618 74.4024 426.086V414.074C74.4024 412.002 73.6884 410.966 72.2604 410.966ZM65.5404 435.62V413.528C65.5404 412.884 65.3584 412.254 64.9944 411.638C64.6584 411.022 64.1684 410.672 63.5244 410.588V409.664C63.7204 409.636 65.2464 408.782 68.1024 407.102C68.7464 407.382 69.3204 407.802 69.8244 408.362C70.3564 408.894 70.6224 409.398 70.6224 409.874C73.6184 408.026 75.3684 407.102 75.8724 407.102C76.0684 407.102 76.4324 407.326 76.9644 407.774C77.5244 408.194 78.0704 408.824 78.6024 409.664C79.1624 410.476 79.4424 411.316 79.4424 412.184V427.136C79.4424 427.332 78.1964 427.92 75.7044 428.9C73.2404 429.852 71.5324 430.454 70.5804 430.706V432.26C70.5804 433.968 71.1544 434.934 72.3024 435.158V436.082L68.0604 438.476C67.4444 438.224 66.8704 437.804 66.3384 437.216C65.8064 436.656 65.5404 436.124 65.5404 435.62ZM91.5854 426.716V402.608C91.5854 402.412 93.1814 401.726 96.3734 400.55C99.5654 399.346 101.399 398.744 101.875 398.744C102.351 398.744 103.065 399.318 104.017 400.466C104.997 401.614 105.487 402.65 105.487 403.574V414.578H107.545V415.586L105.487 416.636V424.784C105.487 426.324 106.159 427.234 107.503 427.514V428.438L102.925 431C102.309 430.748 101.735 430.342 101.203 429.782C100.671 429.194 100.405 428.648 100.405 428.144V416.636H96.6254V424.532C96.6254 425.568 96.7374 426.31 96.9614 426.758C97.1854 427.206 97.6474 427.43 98.3474 427.43V428.732L89.7374 432.344L89.0654 431C89.6814 431 90.2694 430.636 90.8294 429.908C91.3334 429.208 91.5854 428.144 91.5854 426.716ZM98.2634 402.65C97.7034 402.65 97.1574 402.86 96.6254 403.28V415.67L99.1034 414.578H100.405V405.758C100.405 403.686 99.6914 402.65 98.2634 402.65ZM109.673 428.144V413.906C109.673 412.982 109.477 412.184 109.085 411.512C108.693 410.84 108.203 410.504 107.615 410.504V409.58C107.811 409.552 109.337 408.698 112.193 407.018C112.389 407.074 112.627 407.158 112.907 407.27C113.187 407.354 113.551 407.62 113.999 408.068C114.475 408.516 114.713 409.034 114.713 409.622C114.881 409.538 115.357 409.272 116.141 408.824C118.213 407.648 119.445 407.06 119.837 407.06C120.733 407.06 121.573 407.648 122.357 408.824C123.141 410 123.533 411.078 123.533 412.058V424.784C123.533 426.324 124.219 427.234 125.591 427.514V428.438L121.013 431C120.397 430.748 119.823 430.342 119.291 429.782C118.759 429.194 118.493 428.648 118.493 428.144V415.964C118.493 414.396 118.311 413.206 117.947 412.394C117.611 411.554 116.995 411.134 116.099 411.134L114.713 411.386V424.784C114.713 426.492 115.287 427.458 116.435 427.682V428.606L112.193 431C111.577 430.748 111.003 430.342 110.471 429.782C109.939 429.194 109.673 428.648 109.673 428.144ZM133.516 411.134C133.236 411.134 132.984 411.274 132.76 411.554V423.146C132.76 425.302 133.684 426.632 135.532 427.136C136.484 427.36 137.618 427.472 138.934 427.472V428.69C134.342 430.23 131.892 431 131.584 431C130.744 431 129.89 430.412 129.022 429.236C128.154 428.032 127.72 426.632 127.72 425.036V410.924C127.72 410.728 129.316 410.042 132.508 408.866C135.728 407.662 137.576 407.06 138.052 407.06C138.22 407.06 138.416 407.466 138.64 408.278C138.864 409.09 139.116 410.07 139.396 411.218C139.704 412.366 140.012 413.22 140.32 413.78C140.656 414.312 141.272 414.578 142.168 414.578V415.418C141.552 415.698 140.502 416.202 139.018 416.93C137.562 417.63 136.778 417.98 136.666 417.98C136.246 417.98 135.714 416.846 135.07 414.578C134.426 412.282 133.908 411.134 133.516 411.134ZM144.701 428.144V407.354C144.701 406.598 144.575 406.066 144.323 405.758C144.071 405.422 143.637 405.254 143.021 405.254V404.078C146.661 402.174 149.909 400.382 152.765 398.702L153.437 400.046C153.157 400.186 152.765 400.466 152.261 400.886C151.757 401.278 151.337 401.684 151.001 402.104C150.161 403.168 149.741 404.372 149.741 405.716V409.286C152.625 407.802 154.305 407.06 154.781 407.06C155.677 407.06 156.531 407.62 157.343 408.74C158.155 409.86 158.561 411.092 158.561 412.436V424.784C158.561 426.324 159.247 427.234 160.619 427.514V428.438L156.041 431C155.425 430.748 154.851 430.342 154.319 429.782C153.787 429.194 153.521 428.648 153.521 428.144V415.964C153.521 413.22 153.017 411.666 152.009 411.302C151.533 411.134 150.777 411.05 149.741 411.05V424.784C149.741 426.492 150.315 427.458 151.463 427.682V428.606L147.221 431C146.605 430.748 146.031 430.342 145.499 429.782C144.967 429.194 144.701 428.648 144.701 428.144ZM162.747 424.868V410.924C162.747 410.728 164.343 410.042 167.535 408.866C170.727 407.662 172.561 407.06 173.037 407.06C173.513 407.06 174.227 407.634 175.179 408.782C176.159 409.93 176.649 410.966 176.649 411.89V427.094C176.649 427.318 175.109 428.032 172.029 429.236C168.977 430.412 167.101 431 166.401 431C165.729 431 164.945 430.398 164.049 429.194C163.181 427.99 162.747 426.548 162.747 424.868ZM169.929 427.136C170.461 427.136 171.007 426.912 171.567 426.464V414.074C171.567 412.002 170.853 410.966 169.425 410.966C168.865 410.966 168.319 411.176 167.787 411.596V424.028C167.787 426.1 168.501 427.136 169.929 427.136ZM178.777 409.58L183.397 407.06C183.593 407.116 183.817 407.2 184.069 407.312C184.349 407.396 184.713 407.662 185.161 408.11C185.637 408.558 185.875 409.062 185.875 409.622C186.015 409.566 186.673 409.132 187.849 408.32C189.053 407.48 189.823 407.06 190.159 407.06C191.055 407.06 191.895 407.648 192.679 408.824C193.463 410 193.855 411.078 193.855 412.058V414.116L189.529 416.552L188.815 415.964C188.815 413.612 188.591 412.268 188.143 411.932C187.639 411.568 186.883 411.386 185.875 411.386V424.784C185.875 426.492 186.449 427.458 187.597 427.682V428.606L183.355 431C182.739 430.748 182.165 430.342 181.633 429.782C181.101 429.194 180.835 428.648 180.835 428.144V414.2C180.835 412.968 180.611 412.044 180.163 411.428C179.743 410.812 179.281 410.504 178.777 410.504V409.58ZM101.873 456.734C101.593 456.734 101.341 456.874 101.117 457.154V468.242H103.805C104.701 468.158 105.611 467.766 106.535 467.066C107.487 466.338 108.131 465.372 108.467 464.168H109.937V468.242H112.079L111.659 470.3H109.937V478.784C109.937 480.492 110.511 481.458 111.659 481.682V482.606L107.417 485C106.437 484.552 105.709 483.978 105.233 483.278C102.377 484.426 100.585 485 99.8566 485C99.1286 485 98.3166 484.384 97.4206 483.152C96.5246 481.92 96.0766 480.492 96.0766 478.868V456.524C96.0766 456.328 97.5326 455.642 100.445 454.466C103.385 453.262 105.093 452.66 105.569 452.66C105.849 452.66 106.367 453.514 107.123 455.222C107.879 456.93 108.411 458.05 108.719 458.582C109.027 459.086 109.629 459.338 110.525 459.338V460.178C109.909 460.458 108.859 460.962 107.375 461.69C105.919 462.39 105.135 462.74 105.023 462.74C104.603 462.74 104.071 461.746 103.427 459.758C102.783 457.742 102.265 456.734 101.873 456.734ZM102.335 481.01C102.587 481.094 102.895 481.136 103.259 481.136C103.623 481.136 104.169 480.954 104.897 480.59V470.3H101.117V477.02C101.117 478.364 101.187 479.204 101.327 479.54C101.467 479.876 101.607 480.184 101.747 480.464C101.915 480.716 102.111 480.898 102.335 481.01ZM13.9208 525.602C13.2208 525.602 12.6188 525.07 12.1148 524.006C11.6108 522.942 11.3588 521.64 11.3588 520.1V511.364C11.3588 510.832 12.8288 509.922 15.7688 508.634C18.7088 507.318 20.4028 506.66 20.8508 506.66C21.1868 506.66 21.6628 507.22 22.2788 508.34C22.4188 508.62 22.6148 508.998 22.8668 509.474C23.1468 509.95 23.3708 510.342 23.5388 510.65C23.9028 511.322 24.3648 511.658 24.9248 511.658V512.498C24.4768 512.694 23.8748 512.988 23.1188 513.38C21.3548 514.36 20.4028 514.85 20.2628 514.85C19.8428 514.85 19.3108 514.024 18.6668 512.372C18.0508 510.72 17.5468 509.894 17.1548 509.894C16.6508 509.894 16.3988 510.314 16.3988 511.154V520.52C16.3988 521.64 16.6508 522.2 17.1548 522.2C17.2668 522.2 18.1348 521.836 19.7588 521.108C21.3828 520.38 22.3628 520.016 22.6988 520.016C23.3708 520.016 23.9588 520.562 24.4628 521.654C24.9948 522.718 25.2608 524.09 25.2608 525.77V534.716C25.2608 535.248 23.6508 536.172 20.4308 537.488C17.2388 538.776 15.4048 539.42 14.9288 539.42C14.7328 539.42 14.5088 539.182 14.2568 538.706C14.0048 538.23 13.6688 537.558 13.2488 536.69C12.8568 535.794 12.4928 535.052 12.1568 534.464C11.8488 533.876 11.4148 533.582 10.8548 533.582V532.742C11.3028 532.546 11.8908 532.252 12.6188 531.86C14.4108 530.88 15.3768 530.39 15.5168 530.39C15.9368 530.39 16.5248 531.356 17.2808 533.288C18.0648 535.22 18.6528 536.186 19.0448 536.186C19.3248 536.186 19.5908 536.074 19.8428 535.85C20.0948 535.626 20.2208 535.318 20.2208 534.926V525.476C20.2208 524.216 19.8708 523.586 19.1708 523.586C18.9468 523.586 18.0648 523.922 16.5248 524.594C14.9848 525.266 14.1168 525.602 13.9208 525.602ZM34.2406 510.692V515.69H36.3826L35.9626 517.748H34.2406V532.784C34.2406 534.492 34.8146 535.458 35.9626 535.682V536.606L31.7206 539C31.1046 538.748 30.5306 538.342 29.9986 537.782C29.4666 537.194 29.2006 536.648 29.2006 536.144V517.79H27.4786L27.8986 516.026C28.7386 516.026 29.7466 515.466 30.9226 514.346C32.1266 513.198 32.8406 511.98 33.0646 510.692H34.2406ZM38.4291 532.868V518.924C38.4291 518.728 40.0251 518.042 43.2171 516.866C46.4091 515.662 48.2431 515.06 48.7191 515.06C49.1951 515.06 49.9091 515.634 50.8611 516.782C51.8411 517.93 52.3311 518.966 52.3311 519.89V535.094C52.3311 535.318 50.7911 536.032 47.7111 537.236C44.6591 538.412 42.7831 539 42.0831 539C41.4111 539 40.6271 538.398 39.7311 537.194C38.8631 535.99 38.4291 534.548 38.4291 532.868ZM45.6111 535.136C46.1431 535.136 46.6891 534.912 47.2491 534.464V522.074C47.2491 520.002 46.5351 518.966 45.1071 518.966C44.5471 518.966 44.0011 519.176 43.4691 519.596V532.028C43.4691 534.1 44.1831 535.136 45.6111 535.136ZM63.237 518.966C62.705 518.966 62.159 519.19 61.599 519.638V536.312C62.327 536.312 63.139 536.074 64.035 535.598C64.931 535.122 65.379 534.618 65.379 534.086V522.074C65.379 520.002 64.665 518.966 63.237 518.966ZM56.517 543.62V521.528C56.517 520.884 56.335 520.254 55.971 519.638C55.635 519.022 55.145 518.672 54.501 518.588V517.664C54.697 517.636 56.223 516.782 59.079 515.102C59.723 515.382 60.297 515.802 60.801 516.362C61.333 516.894 61.599 517.398 61.599 517.874C64.595 516.026 66.345 515.102 66.849 515.102C67.045 515.102 67.409 515.326 67.941 515.774C68.501 516.194 69.047 516.824 69.579 517.664C70.139 518.476 70.419 519.316 70.419 520.184V535.136C70.419 535.332 69.173 535.92 66.681 536.9C64.217 537.852 62.509 538.454 61.557 538.706V540.26C61.557 541.968 62.131 542.934 63.279 543.158V544.082L59.037 546.476C58.421 546.224 57.847 545.804 57.315 545.216C56.783 544.656 56.517 544.124 56.517 543.62ZM87.6019 510.692V515.69H89.7439L89.3239 517.748H87.6019V532.784C87.6019 534.492 88.1759 535.458 89.3239 535.682V536.606L85.0819 539C84.4659 538.748 83.8919 538.342 83.3599 537.782C82.8279 537.194 82.5619 536.648 82.5619 536.144V517.79H80.8399L81.2599 516.026C82.0999 516.026 83.1079 515.466 84.2839 514.346C85.4879 513.198 86.2019 511.98 86.4259 510.692H87.6019ZM91.7904 536.144V515.354C91.7904 514.598 91.6644 514.066 91.4124 513.758C91.1604 513.422 90.7264 513.254 90.1104 513.254V512.078C93.7504 510.174 96.9984 508.382 99.8544 506.702L100.526 508.046C100.246 508.186 99.8544 508.466 99.3504 508.886C98.8464 509.278 98.4264 509.684 98.0904 510.104C97.2504 511.168 96.8304 512.372 96.8304 513.716V517.286C99.7144 515.802 101.394 515.06 101.87 515.06C102.766 515.06 103.62 515.62 104.432 516.74C105.244 517.86 105.65 519.092 105.65 520.436V532.784C105.65 534.324 106.336 535.234 107.708 535.514V536.438L103.13 539C102.514 538.748 101.94 538.342 101.408 537.782C100.876 537.194 100.61 536.648 100.61 536.144V523.964C100.61 521.22 100.106 519.666 99.0984 519.302C98.6224 519.134 97.8664 519.05 96.8304 519.05V532.784C96.8304 534.492 97.4044 535.458 98.5524 535.682V536.606L94.3104 539C93.6944 538.748 93.1204 538.342 92.5884 537.782C92.0564 537.194 91.7904 536.648 91.7904 536.144ZM120.127 515.06C120.267 515.06 120.617 515.284 121.177 515.732C121.737 516.152 122.297 516.754 122.857 517.538C123.417 518.294 123.697 519.036 123.697 519.764V526.82C123.697 527.324 122.955 527.94 121.471 528.668C119.987 529.396 118.545 529.998 117.145 530.474C115.773 530.922 115.031 531.146 114.919 531.146C114.919 533.302 115.857 534.632 117.733 535.136C118.657 535.36 119.763 535.472 121.051 535.472V536.69C116.459 538.23 114.009 539 113.701 539C112.861 539 112.007 538.412 111.139 537.236C110.271 536.032 109.837 534.632 109.837 533.036V518.924C109.837 518.728 111.433 518.042 114.625 516.866C117.817 515.662 119.651 515.06 120.127 515.06ZM118.657 521.738C118.657 520.954 118.475 520.296 118.111 519.764C117.747 519.204 117.285 518.924 116.725 518.924C116.165 518.924 115.549 519.134 114.877 519.554V529.256C117.397 528.556 118.657 527.044 118.657 524.72V521.738ZM138.239 525.602C137.539 525.602 136.937 525.07 136.433 524.006C135.929 522.942 135.677 521.64 135.677 520.1V511.364C135.677 510.832 137.147 509.922 140.087 508.634C143.027 507.318 144.721 506.66 145.169 506.66C145.505 506.66 145.981 507.22 146.597 508.34C146.737 508.62 146.933 508.998 147.185 509.474C147.465 509.95 147.689 510.342 147.857 510.65C148.221 511.322 148.683 511.658 149.243 511.658V512.498C148.795 512.694 148.193 512.988 147.437 513.38C145.673 514.36 144.721 514.85 144.581 514.85C144.161 514.85 143.629 514.024 142.985 512.372C142.369 510.72 141.865 509.894 141.473 509.894C140.969 509.894 140.717 510.314 140.717 511.154V520.52C140.717 521.64 140.969 522.2 141.473 522.2C141.585 522.2 142.453 521.836 144.077 521.108C145.701 520.38 146.681 520.016 147.017 520.016C147.689 520.016 148.277 520.562 148.781 521.654C149.313 522.718 149.579 524.09 149.579 525.77V534.716C149.579 535.248 147.969 536.172 144.749 537.488C141.557 538.776 139.723 539.42 139.247 539.42C139.051 539.42 138.827 539.182 138.575 538.706C138.323 538.23 137.987 537.558 137.567 536.69C137.175 535.794 136.811 535.052 136.475 534.464C136.167 533.876 135.733 533.582 135.173 533.582V532.742C135.621 532.546 136.209 532.252 136.937 531.86C138.729 530.88 139.695 530.39 139.835 530.39C140.255 530.39 140.843 531.356 141.599 533.288C142.383 535.22 142.971 536.186 143.363 536.186C143.643 536.186 143.909 536.074 144.161 535.85C144.413 535.626 144.539 535.318 144.539 534.926V525.476C144.539 524.216 144.189 523.586 143.489 523.586C143.265 523.586 142.383 523.922 140.843 524.594C139.303 525.266 138.435 525.602 138.239 525.602ZM153.519 536.144V515.354C153.519 514.598 153.393 514.066 153.141 513.758C152.889 513.422 152.455 513.254 151.839 513.254V512.078C155.479 510.174 158.727 508.382 161.583 506.702L162.255 508.046C161.975 508.186 161.583 508.466 161.079 508.886C160.575 509.278 160.155 509.684 159.819 510.104C158.979 511.168 158.559 512.372 158.559 513.716V517.286C161.443 515.802 163.123 515.06 163.599 515.06C164.495 515.06 165.349 515.62 166.161 516.74C166.973 517.86 167.379 519.092 167.379 520.436V532.784C167.379 534.324 168.065 535.234 169.437 535.514V536.438L164.859 539C164.243 538.748 163.669 538.342 163.137 537.782C162.605 537.194 162.339 536.648 162.339 536.144V523.964C162.339 521.22 161.835 519.666 160.827 519.302C160.351 519.134 159.595 519.05 158.559 519.05V532.784C158.559 534.492 159.133 535.458 160.281 535.682V536.606L156.039 539C155.423 538.748 154.849 538.342 154.317 537.782C153.785 537.194 153.519 536.648 153.519 536.144ZM176.606 517.916V532.784C176.606 534.492 177.18 535.458 178.328 535.682V536.606L174.086 539C173.47 538.748 172.896 538.342 172.364 537.782C171.832 537.194 171.566 536.648 171.566 536.144V521.276C171.566 519.568 170.992 518.602 169.844 518.378V517.454L174.086 515.06C174.702 515.312 175.276 515.732 175.808 516.32C176.34 516.88 176.606 517.412 176.606 517.916ZM170.936 509.81V507.248C170.936 507.164 171.51 506.912 172.658 506.492C173.834 506.044 174.506 505.82 174.674 505.82C174.87 505.82 175.136 506.058 175.472 506.534C175.836 507.01 176.018 507.5 176.018 508.004V511.07C176.018 511.154 175.458 511.42 174.338 511.868C173.218 512.288 172.532 512.498 172.28 512.498C172.028 512.498 171.734 512.26 171.398 511.784C171.09 511.28 170.936 510.622 170.936 509.81ZM187.514 518.966C186.982 518.966 186.436 519.19 185.876 519.638V536.312C186.604 536.312 187.416 536.074 188.312 535.598C189.208 535.122 189.656 534.618 189.656 534.086V522.074C189.656 520.002 188.942 518.966 187.514 518.966ZM180.794 543.62V521.528C180.794 520.884 180.612 520.254 180.248 519.638C179.912 519.022 179.422 518.672 178.778 518.588V517.664C178.974 517.636 180.5 516.782 183.356 515.102C184 515.382 184.574 515.802 185.078 516.362C185.61 516.894 185.876 517.398 185.876 517.874C188.872 516.026 190.622 515.102 191.126 515.102C191.322 515.102 191.686 515.326 192.218 515.774C192.778 516.194 193.324 516.824 193.856 517.664C194.416 518.476 194.696 519.316 194.696 520.184V535.136C194.696 535.332 193.45 535.92 190.958 536.9C188.494 537.852 186.786 538.454 185.834 538.706V540.26C185.834 541.968 186.408 542.934 187.556 543.158V544.082L183.314 546.476C182.698 546.224 182.124 545.804 181.592 545.216C181.06 544.656 180.794 544.124 180.794 543.62Z" fill="white"/>
<defs>
<filter id="filter0_d" x="0" y="164" width="210" height="210" filterUnits="userSpaceOnUse" color-interpolation-filters="sRGB">
<feFlood flood-opacity="0" result="BackgroundImageFix"/>
<feColorMatrix in="SourceAlpha" type="matrix" values="0 0 0 0 0 0 0 0 0 0 0 0 0 0 0 0 0 0 127 0"/>
<feOffset dx="2" dy="4"/>
<feGaussianBlur stdDeviation="2.5"/>
<feColorMatrix type="matrix" values="0 0 0 0 1 0 0 0 0 1 0 0 0 0 1 0 0 0 1 0"/>
<feBlend mode="normal" in2="BackgroundImageFix" result="effect1_dropShadow"/>
<feBlend mode="normal" in="SourceGraphic" in2="effect1_dropShadow" result="shape"/>
</filter>
</defs>
</svg>