<svg width="252" height="127" viewBox="0 0 652 427" fill="none" xmlns="http://www.w3.org/2000/svg">
<g filter="url(#filter0_d)">
<rect x="224" y="1" width="200" height="200" rx="48" fill="white"/>
<rect x="225" y="2" width="198" height="198" rx="47" stroke="black" stroke-width="2"/>
</g>
<g filter="url(#filter1_d)">
<rect x="224" y="218" width="200" height="200" rx="48" fill="white"/>
<rect x="225" y="219" width="198" height="198" rx="47" stroke="black" stroke-width="2"/>
</g>
<g filter="url(#filter2_d)">
<rect x="3" y="218" width="200" height="200" rx="48" fill="white"/>
<rect x="4" y="219" width="198" height="198" rx="47" stroke="black" stroke-width="2"/>
</g>
<g filter="url(#filter3_d)">
<rect x="445" y="218" width="200" height="200" rx="48" fill="white"/>
<rect x="446" y="219" width="198" height="198" rx="47" stroke="black" stroke-width="2"/>
</g>
<g filter="url(#filter4_d)">
<path d="M545.963 295.751H533.101V339.249H545.963C552.544 339.249 557.13 336.011 559.728 329.529C561.145 325.971 561.857 321.735 561.857 316.825C561.857 310.042 560.792 304.833 558.665 301.204C556.536 297.568 552.302 295.751 545.963 295.751" fill="black"/>
<path d="M545.5 248.594C507.445 248.594 476.594 279.445 476.594 317.5C476.594 355.555 507.445 386.406 545.5 386.406C583.555 386.406 614.406 355.555 614.406 317.5C614.406 279.445 583.555 248.594 545.5 248.594ZM570.671 338.388C565.843 346.677 558.392 350.823 548.318 350.823H519.582V284.177H548.318C552.45 284.234 555.891 284.719 558.636 285.622C563.31 287.161 567.098 289.977 569.992 294.079C572.316 297.393 573.896 300.983 574.742 304.842C575.587 308.701 576.009 312.378 576.009 315.874C576.009 324.735 574.232 332.241 570.671 338.388Z" fill="black"/>
</g>
<g filter="url(#filter5_d)">
<path d="M324.5 31.5938C286.445 31.5938 255.594 62.4454 255.594 100.5C255.594 138.555 286.445 169.406 324.5 169.406C362.555 169.406 393.406 138.555 393.406 100.5C393.406 62.4454 362.555 31.5938 324.5 31.5938ZM348.11 133.823H334.772L326.723 94.8474L324.374 81.9619L322.024 94.8474L313.976 133.823H301.042L282.141 67.1769H296.928L305.73 105.34L307.646 115.963L309.566 105.56L317.093 67.1769H331.788L339.705 105.335L341.733 115.963L343.791 105.748L352.673 67.1769H366.854L348.11 133.823Z" fill="black"/>
</g>
<path d="M93.2146 326.044H110.283L101.862 299.818L93.2146 326.044Z" fill="black"/>
<path d="M101.906 249C63.8516 249 33 279.849 33 317.906C33 355.963 63.8516 386.812 101.906 386.812C139.961 386.812 170.812 355.961 170.812 317.906C170.812 279.849 139.961 249 101.906 249ZM118.368 351.229L113.972 337.528H89.4273L84.9094 351.229H70.3426L94.1336 284.583H109.888L133.468 351.229H118.368Z" fill="black"/>
<path d="M324.5 248.594C286.445 248.594 255.594 279.443 255.594 317.5C255.594 355.557 286.445 386.406 324.5 386.406C362.555 386.406 393.406 355.555 393.406 317.5C393.406 279.443 362.555 248.594 324.5 248.594ZM345.064 346.62C340.358 350.644 333.71 352.654 325.118 352.654C316.344 352.654 309.439 350.671 304.414 346.709C299.386 342.743 296.873 337.297 296.873 330.362H310.165C310.597 333.408 311.445 335.682 312.703 337.191C315.014 339.936 318.967 341.305 324.569 341.305C327.925 341.305 330.646 340.946 332.739 340.218C336.712 338.831 338.697 336.256 338.697 332.489C338.697 330.291 337.723 328.587 335.78 327.379C333.832 326.203 330.748 325.162 326.526 324.262L319.311 322.679C312.219 321.108 307.347 319.409 304.696 317.571C300.201 314.496 297.957 309.688 297.957 303.147C297.957 297.177 300.155 292.221 304.547 288.272C308.939 284.322 315.395 282.349 323.91 282.349C331.021 282.349 337.08 284.209 342.106 287.932C347.122 291.656 349.754 297.06 350.002 304.144H336.616C336.37 300.136 334.579 297.288 331.241 295.597C329.016 294.483 326.248 293.923 322.943 293.923C319.263 293.923 316.33 294.646 314.137 296.093C311.943 297.54 310.843 299.559 310.843 302.152C310.843 304.534 311.925 306.312 314.091 307.486C315.478 308.271 318.429 309.19 322.945 310.244L334.641 313.003C339.763 314.206 343.608 315.821 346.166 317.838C350.138 320.973 352.125 325.511 352.125 331.447C352.125 337.536 349.775 342.596 345.064 346.62" fill="black"/>
<defs>
<filter id="filter0_d" x="221" y="0" width="210" height="210" filterUnits="userSpaceOnUse" color-interpolation-filters="sRGB">
<feFlood flood-opacity="0" result="BackgroundImageFix"/>
<feColorMatrix in="SourceAlpha" type="matrix" values="0 0 0 0 0 0 0 0 0 0 0 0 0 0 0 0 0 0 127 0"/>
<feOffset dx="2" dy="4"/>
<feGaussianBlur stdDeviation="2.5"/>
<feColorMatrix type="matrix" values="0 0 0 0 1 0 0 0 0 1 0 0 0 0 1 0 0 0 1 0"/>
<feBlend mode="normal" in2="BackgroundImageFix" result="effect1_dropShadow"/>
<feBlend mode="normal" in="SourceGraphic" in2="effect1_dropShadow" result="shape"/>
</filter>
<filter id="filter1_d" x="221" y="217" width="210" height="210" filterUnits="userSpaceOnUse" color-interpolation-filters="sRGB">
<feFlood flood-opacity="0" result="BackgroundImageFix"/>
<feColorMatrix in="SourceAlpha" type="matrix" values="0 0 0 0 0 0 0 0 0 0 0 0 0 0 0 0 0 0 127 0"/>
<feOffset dx="2" dy="4"/>
<feGaussianBlur stdDeviation="2.5"/>
<feColorMatrix type="matrix" values="0 0 0 0 1 0 0 0 0 1 0 0 0 0 1 0 0 0 1 0"/>
<feBlend mode="normal" in2="BackgroundImageFix" result="effect1_dropShadow"/>
<feBlend mode="normal" in="SourceGraphic" in2="effect1_dropShadow" result="shape"/>
</filter>
<filter id="filter2_d" x="0" y="217" width="210" height="210" filterUnits="userSpaceOnUse" color-interpolation-filters="sRGB">
<feFlood flood-opacity="0" result="BackgroundImageFix"/>
<feColorMatrix in="SourceAlpha" type="matrix" values="0 0 0 0 0 0 0 0 0 0 0 0 0 0 0 0 0 0 127 0"/>
<feOffset dx="2" dy="4"/>
<feGaussianBlur stdDeviation="2.5"/>
<feColorMatrix type="matrix" values="0 0 0 0 1 0 0 0 0 1 0 0 0 0 1 0 0 0 1 0"/>
<feBlend mode="normal" in2="BackgroundImageFix" result="effect1_dropShadow"/>
<feBlend mode="normal" in="SourceGraphic" in2="effect1_dropShadow" result="shape"/>
</filter>
<filter id="filter3_d" x="442" y="217" width="210" height="210" filterUnits="userSpaceOnUse" color-interpolation-filters="sRGB">
<feFlood flood-opacity="0" result="BackgroundImageFix"/>
<feColorMatrix in="SourceAlpha" type="matrix" values="0 0 0 0 0 0 0 0 0 0 0 0 0 0 0 0 0 0 127 0"/>
<feOffset dx="2" dy="4"/>
<feGaussianBlur stdDeviation="2.5"/>
<feColorMatrix type="matrix" values="0 0 0 0 1 0 0 0 0 1 0 0 0 0 1 0 0 0 1 0"/>
<feBlend mode="normal" in2="BackgroundImageFix" result="effect1_dropShadow"/>
<feBlend mode="normal" in="SourceGraphic" in2="effect1_dropShadow" result="shape"/>
</filter>
<filter id="filter4_d" x="468" y="244" width="155" height="155" filterUnits="userSpaceOnUse" color-interpolation-filters="sRGB">
<feFlood flood-opacity="0" result="BackgroundImageFix"/>
<feColorMatrix in="SourceAlpha" type="matrix" values="0 0 0 0 0 0 0 0 0 0 0 0 0 0 0 0 0 0 127 0"/>
<feOffset dy="4"/>
<feGaussianBlur stdDeviation="2"/>
<feColorMatrix type="matrix" values="0 0 0 0 0 0 0 0 0 0 0 0 0 0 0 0 0 0 0.25 0"/>
<feBlend mode="normal" in2="BackgroundImageFix" result="effect1_dropShadow"/>
<feBlend mode="normal" in="SourceGraphic" in2="effect1_dropShadow" result="shape"/>
</filter>
<filter id="filter5_d" x="247" y="27" width="155" height="155" filterUnits="userSpaceOnUse" color-interpolation-filters="sRGB">
<feFlood flood-opacity="0" result="BackgroundImageFix"/>
<feColorMatrix in="SourceAlpha" type="matrix" values="0 0 0 0 0 0 0 0 0 0 0 0 0 0 0 0 0 0 127 0"/>
<feOffset dy="4"/>
<feGaussianBlur stdDeviation="2"/>
<feColorMatrix type="matrix" values="0 0 0 0 0 0 0 0 0 0 0 0 0 0 0 0 0 0 0.25 0"/>
<feBlend mode="normal" in2="BackgroundImageFix" result="effect1_dropShadow"/>
<feBlend mode="normal" in="SourceGraphic" in2="effect1_dropShadow" result="shape"/>
</filter>
</defs>
</svg>
