<svg width="24" height="24" viewBox="0 0 24 24" fill="none" xmlns="http://www.w3.org/2000/svg">
<path d="M20.0016 12C20.0016 8.67188 17.9672 5.82188 15.0797 4.61719L14.3109 6.46406C16.4766 7.36875 18 9.50625 18 12C18 14.4984 16.4766 16.6313 14.3063 17.5359L15.075 19.3828C17.9672 18.1781 20.0016 15.3281 20.0016 12ZM15.9984 12C15.9984 10.3359 14.9812 8.91094 13.5375 8.31094L12.7687 10.1578C13.4906 10.4578 13.9969 11.1703 13.9969 12.0047C13.9969 12.8344 13.4906 13.5469 12.7687 13.8516L13.5375 15.6984C14.9812 15.0891 15.9984 13.6641 15.9984 12ZM16.6172 0.923438L15.8438 2.77031C19.4578 4.275 21.9984 7.8375 21.9984 12C21.9984 16.1578 19.4578 19.725 15.8438 21.2297L16.6125 23.0766C20.9531 21.2672 24 16.9922 24 12C24 7.00781 20.9531 2.73281 16.6172 0.923438ZM0 6.99844V16.9969H3.99844L11.0016 24V0L3.99844 6.99844H0Z" fill="white"/>
</svg>
